<?xml version="1.0" encoding="UTF-8" standalone="no"?>
<!-- Created with Inkscape (http://www.inkscape.org/) -->

<svg
   width="210mm"
   height="297mm"
   viewBox="0 0 210 297"
   version="1.1"
   id="svg1"
   inkscape:version="1.3.2 (091e20e, 2023-11-25, custom)"
   sodipodi:docname="circuit.svg"
   xmlns:inkscape="http://www.inkscape.org/namespaces/inkscape"
   xmlns:sodipodi="http://sodipodi.sourceforge.net/DTD/sodipodi-0.dtd"
   xmlns="http://www.w3.org/2000/svg"
   xmlns:svg="http://www.w3.org/2000/svg">
  <sodipodi:namedview
     id="namedview1"
     pagecolor="#ffffff"
     bordercolor="#cccccc"
     borderopacity="1"
     inkscape:showpageshadow="0"
     inkscape:pageopacity="1"
     inkscape:pagecheckerboard="0"
     inkscape:deskcolor="#d1d1d1"
     inkscape:document-units="mm"
     showgrid="true"
     inkscape:zoom="1.9578168"
     inkscape:cx="379.75974"
     inkscape:cy="340.43022"
     inkscape:window-width="2400"
     inkscape:window-height="1261"
     inkscape:window-x="4791"
     inkscape:window-y="-9"
     inkscape:window-maximized="1"
     inkscape:current-layer="layer1">
    <inkscape:grid
       id="grid1"
       units="mm"
       originx="0"
       originy="0"
       spacingx="0.99999998"
       spacingy="1"
       empcolor="#0099e5"
       empopacity="0.30196078"
       color="#0099e5"
       opacity="0.14901961"
       empspacing="5"
       dotted="false"
       gridanglex="30"
       gridanglez="30"
       visible="true" />
  </sodipodi:namedview>
  <defs
     id="defs1" />
  <g
     inkscape:label="Layer 1"
     inkscape:groupmode="layer"
     id="layer1">
    <rect
       style="font-variation-settings:normal;opacity:1;fill:#d1d1d1;fill-opacity:1;stroke:#000000;stroke-width:1;stroke-linecap:round;stroke-linejoin:round;stroke-miterlimit:4;stroke-dasharray:none;stroke-dashoffset:0;stroke-opacity:1;paint-order:markers stroke fill"
       id="rect95"
       width="70"
       height="45.000004"
       x="70"
       y="75" />
    <text
       xml:space="preserve"
       style="font-size:3.52777px;line-height:1;font-family:'Berlin Sans FB';-inkscape-font-specification:'Berlin Sans FB, Normal';font-variation-settings:normal;text-align:center;text-decoration-color:#000000;letter-spacing:0px;word-spacing:0px;text-anchor:middle;vector-effect:none;fill:#f50000;fill-opacity:1;stroke:none;stroke-width:1;stroke-linecap:round;stroke-linejoin:round;stroke-miterlimit:4;stroke-dasharray:none;stroke-dashoffset:0;stroke-opacity:1;-inkscape-stroke:none;paint-order:markers stroke fill;stop-color:#000000"
       x="67.145798"
       y="111.18505"
       id="text85"><tspan
         sodipodi:role="line"
         id="tspan85"
         style="font-variation-settings:normal;vector-effect:none;fill:#f50000;fill-opacity:1;stroke:none;stroke-width:1;stroke-linecap:round;stroke-linejoin:round;stroke-miterlimit:4;stroke-dasharray:none;stroke-dashoffset:0;stroke-opacity:1;-inkscape-stroke:none;paint-order:markers stroke fill;stop-color:#000000;stop-opacity:1"
         x="67.145798"
         y="111.18505">5V</tspan></text>
    <path
       id="path86"
       style="color:#000000;fill:#f50000;stroke-linecap:round;stroke-linejoin:round;-inkscape-stroke:none;paint-order:markers stroke fill"
       d="m 100,109.00013 a 0.99999994,0.99999994 0 0 1 0.99994,0.99993 A 0.99999994,0.99999994 0 0 1 100,111 0.99999994,0.99999994 0 0 1 99.270852,110.68168 h -3.54191 A 0.99999994,0.99999994 0 0 1 94.999792,111 0.99999994,0.99999994 0 0 1 94.271152,110.68168 H 90.728731 A 0.99999994,0.99999994 0 0 1 90.000091,111 a 0.99999994,0.99999994 0 0 1 -0.72915,-0.31832 h -3.54242 A 0.99999994,0.99999994 0 0 1 84.999881,111 a 0.99999994,0.99999994 0 0 1 -0.72915,-0.31832 h -3.5419 A 0.99999994,0.99999994 0 0 1 79.999671,111 a 0.99999994,0.99999994 0 0 1 -0.72864,-0.31832 h -3.54242 A 0.99999994,0.99999994 0 0 1 74.999971,111 a 0.99999994,0.99999994 0 0 1 -0.99993,-0.99994 0.99999994,0.99999994 0 0 1 0.99993,-0.99993 0.99999994,0.99999994 0 0 1 0.72864,0.31832 h 3.53984 a 0.99999994,0.99999994 0 0 1 0.73122,-0.31832 0.99999994,0.99999994 0 0 1 0.72916,0.31832 h 3.53983 a 0.99999994,0.99999994 0 0 1 0.73122,-0.31832 0.99999994,0.99999994 0 0 1 0.72864,0.31832 h 3.54035 a 0.99999994,0.99999994 0 0 1 0.73122,-0.31832 0.99999994,0.99999994 0 0 1 0.72864,0.31832 h 3.539841 a 0.99999994,0.99999994 0 0 1 0.73122,-0.31832 0.99999994,0.99999994 0 0 1 0.72915,0.31832 h 3.53984 A 0.99999994,0.99999994 0 0 1 100,109.00013 Z" />
    <path
       style="font-variation-settings:normal;fill:none;fill-opacity:1;stroke:#f50000;stroke-width:0.5;stroke-linecap:round;stroke-linejoin:round;stroke-miterlimit:4;stroke-dasharray:none;stroke-dashoffset:0;stroke-opacity:1;paint-order:markers stroke fill;stop-color:#000000"
       d="M 73.000041,110.00006 H 71.000043"
       id="path87"
       sodipodi:nodetypes="cc" />
    <path
       style="font-variation-settings:normal;fill:none;fill-opacity:1;stroke:#f50000;stroke-width:0.5;stroke-linecap:round;stroke-linejoin:round;stroke-miterlimit:4;stroke-dasharray:none;stroke-dashoffset:0;stroke-opacity:1;paint-order:markers stroke fill;stop-color:#000000"
       d="m 72.000043,109.00006 v 2"
       id="path88"
       sodipodi:nodetypes="cc" />
    <path
       id="path2"
       style="color:#000000;fill:#f50000;stroke-linecap:round;stroke-linejoin:round;-inkscape-stroke:none;paint-order:markers stroke fill"
       d="m 74.99979,78.999998 a 0.99999994,0.99999994 0 0 0 -0.999939,0.999939 0.99999994,0.99999994 0 0 0 0.999939,0.999938 0.99999994,0.99999994 0 0 0 0.729155,-0.318326 h 3.541902 a 0.99999994,0.99999994 0 0 0 0.729155,0.318326 0.99999994,0.99999994 0 0 0 0.728638,-0.318326 h 3.542419 a 0.99999994,0.99999994 0 0 0 0.728638,0.318326 0.99999994,0.99999994 0 0 0 0.729154,-0.318326 h 3.54242 a 0.99999994,0.99999994 0 0 0 0.728637,0.318326 0.99999994,0.99999994 0 0 0 0.729155,-0.318326 h 3.541902 a 0.99999994,0.99999994 0 0 0 0.729155,0.318326 0.99999994,0.99999994 0 0 0 0.728638,-0.318326 h 3.542419 a 0.99999994,0.99999994 0 0 0 0.728643,0.318326 0.99999994,0.99999994 0 0 0 0.99993,-0.999938 0.99999994,0.99999994 0 0 0 -0.99993,-0.999939 0.99999994,0.99999994 0 0 0 -0.728643,0.318326 H 95.731341 A 0.99999994,0.99999994 0 0 0 95.00012,78.999998 0.99999994,0.99999994 0 0 0 94.270965,79.318324 H 90.73113 a 0.99999994,0.99999994 0 0 0 -0.731222,-0.318326 0.99999994,0.99999994 0 0 0 -0.728637,0.318326 h -3.540353 a 0.99999994,0.99999994 0 0 0 -0.731221,-0.318326 0.99999994,0.99999994 0 0 0 -0.728638,0.318326 h -3.539836 a 0.99999994,0.99999994 0 0 0 -0.731221,-0.318326 0.99999994,0.99999994 0 0 0 -0.729155,0.318326 H 75.731012 A 0.99999994,0.99999994 0 0 0 74.99979,78.999998 Z" />
    <path
       style="font-variation-settings:normal;fill:none;fill-opacity:1;stroke:#f50000;stroke-width:0.5;stroke-linecap:round;stroke-linejoin:round;stroke-miterlimit:4;stroke-dasharray:none;stroke-dashoffset:0;stroke-opacity:1;paint-order:markers stroke fill;stop-color:#000000"
       d="m 72.999951,80.00003 h -2"
       id="path3"
       sodipodi:nodetypes="cc" />
    <path
       style="font-variation-settings:normal;fill:none;fill-opacity:1;stroke:#f50000;stroke-width:0.5;stroke-linecap:round;stroke-linejoin:round;stroke-miterlimit:4;stroke-dasharray:none;stroke-dashoffset:0;stroke-opacity:1;paint-order:markers stroke fill;stop-color:#000000"
       d="m 71.999951,79.00003 v 2"
       id="path4"
       sodipodi:nodetypes="cc" />
    <path
       style="fill:none;stroke:#000000;stroke-width:0.5;stroke-linecap:round;stroke-linejoin:round;stroke-dasharray:none;stroke-opacity:1;paint-order:markers stroke fill"
       d="m 136.99994,80.00003 h 2"
       id="path5"
       sodipodi:nodetypes="cc" />
    <path
       id="path10"
       style="color:#000000;fill:#000000;stroke-linecap:round;stroke-linejoin:round;-inkscape-stroke:none;paint-order:markers stroke fill"
       d="m 109.99972,78.999998 a 0.99999994,0.99999994 0 0 0 -0.99994,0.999939 0.99999994,0.99999994 0 0 0 0.99994,0.999938 0.99999994,0.99999994 0 0 0 0.72915,-0.318326 h 3.54242 a 0.99999994,0.99999994 0 0 0 0.72864,0.318326 0.99999994,0.99999994 0 0 0 0.72915,-0.318326 h 3.5419 a 0.99999994,0.99999994 0 0 0 0.72916,0.318326 0.99999994,0.99999994 0 0 0 0.72863,-0.318326 h 3.54242 a 0.99999994,0.99999994 0 0 0 0.72864,0.318326 0.99999994,0.99999994 0 0 0 0.72916,-0.318326 h 3.5419 a 0.99999994,0.99999994 0 0 0 0.72915,0.318326 0.99999994,0.99999994 0 0 0 0.72864,-0.318326 h 3.54242 a 0.99999994,0.99999994 0 0 0 0.72864,0.318326 0.99999994,0.99999994 0 0 0 1.00045,-0.999938 0.99999994,0.99999994 0 0 0 -1.00045,-0.999939 0.99999994,0.99999994 0 0 0 -0.72864,0.318326 h -3.53983 a 0.99999994,0.99999994 0 0 0 -0.73122,-0.318326 0.99999994,0.99999994 0 0 0 -0.72916,0.318326 h -3.53984 a 0.99999994,0.99999994 0 0 0 -0.73122,-0.318326 0.99999994,0.99999994 0 0 0 -0.72864,0.318326 h -3.54035 a 0.99999994,0.99999994 0 0 0 -0.7307,-0.318326 0.99999994,0.99999994 0 0 0 -0.72916,0.318326 h -3.53983 a 0.99999994,0.99999994 0 0 0 -0.73122,-0.318326 0.99999994,0.99999994 0 0 0 -0.72864,0.318326 h -3.54035 a 0.99999994,0.99999994 0 0 0 -0.73122,-0.318326 z" />
    <path
       id="path27"
       style="color:#000000;fill:#5f5f5f;fill-opacity:1;stroke-linecap:round;stroke-linejoin:round;-inkscape-stroke:none;paint-order:markers stroke fill"
       d="m 75.00005,89.000268 a 0.99999994,0.99999994 0 0 0 -0.999939,0.999939 0.99999994,0.99999994 0 0 0 0.999939,0.999939 0.99999994,0.99999994 0 0 0 0.729155,-0.318327 h 3.541902 a 0.99999994,0.99999994 0 0 0 0.729155,0.318327 0.99999994,0.99999994 0 0 0 0.728638,-0.318327 h 3.542419 a 0.99999994,0.99999994 0 0 0 0.729154,0.318327 0.99999994,0.99999994 0 0 0 0.728638,-0.318327 h 3.54242 a 0.99999994,0.99999994 0 0 0 0.728637,0.318327 0.99999994,0.99999994 0 0 0 0.729155,-0.318327 h 3.541902 a 0.99999994,0.99999994 0 0 0 0.729155,0.318327 0.99999994,0.99999994 0 0 0 0.728638,-0.318327 h 3.542419 a 0.99999994,0.99999994 0 0 0 0.728643,0.318327 0.99999994,0.99999994 0 0 0 0.99993,-0.999939 0.99999994,0.99999994 0 0 0 -0.99993,-0.999939 0.99999994,0.99999994 0 0 0 -0.728643,0.318327 h -3.539319 a 0.99999994,0.99999994 0 0 0 -0.731738,-0.318327 0.99999994,0.99999994 0 0 0 -0.729155,0.318327 h -3.539318 a 0.99999994,0.99999994 0 0 0 -0.731739,-0.318327 0.99999994,0.99999994 0 0 0 -0.728637,0.318327 h -3.539836 a 0.99999994,0.99999994 0 0 0 -0.731222,-0.318327 0.99999994,0.99999994 0 0 0 -0.729154,0.318327 H 80.732 a 0.99999994,0.99999994 0 0 0 -0.731738,-0.318327 0.99999994,0.99999994 0 0 0 -0.729155,0.318327 H 75.731789 A 0.99999994,0.99999994 0 0 0 75.00005,89.000268 Z" />
    <path
       id="path37"
       style="color:#000000;fill:#5f5f5f;fill-opacity:1;stroke-linecap:round;stroke-linejoin:round;-inkscape-stroke:none;paint-order:markers stroke fill"
       d="m 75.000251,94.000149 a 0.99999994,0.99999994 0 0 0 -0.999939,0.999939 0.99999994,0.99999994 0 0 0 0.999939,0.999939 0.99999994,0.99999994 0 0 0 0.729155,-0.318327 h 3.541902 a 0.99999994,0.99999994 0 0 0 0.729155,0.318327 0.99999994,0.99999994 0 0 0 0.728638,-0.318327 h 3.542419 a 0.99999994,0.99999994 0 0 0 0.729154,0.318327 0.99999994,0.99999994 0 0 0 0.728638,-0.318327 h 3.54242 a 0.99999994,0.99999994 0 0 0 0.728637,0.318327 0.99999994,0.99999994 0 0 0 0.729155,-0.318327 h 3.541902 a 0.99999994,0.99999994 0 0 0 0.729155,0.318327 0.99999994,0.99999994 0 0 0 0.728638,-0.318327 h 3.542419 a 0.99999994,0.99999994 0 0 0 0.728642,0.318327 0.99999994,0.99999994 0 0 0 0.99994,-0.999939 0.99999994,0.99999994 0 0 0 -0.99994,-0.999939 0.99999994,0.99999994 0 0 0 -0.728642,0.318327 h -3.539319 a 0.99999994,0.99999994 0 0 0 -0.731738,-0.318327 0.99999994,0.99999994 0 0 0 -0.729155,0.318327 h -3.539318 a 0.99999994,0.99999994 0 0 0 -0.731739,-0.318327 0.99999994,0.99999994 0 0 0 -0.728637,0.318327 h -3.539836 a 0.99999994,0.99999994 0 0 0 -0.731222,-0.318327 0.99999994,0.99999994 0 0 0 -0.729154,0.318327 h -3.539319 a 0.99999994,0.99999994 0 0 0 -0.731738,-0.318327 0.99999994,0.99999994 0 0 0 -0.729155,0.318327 H 75.73199 a 0.99999994,0.99999994 0 0 0 -0.731739,-0.318327 z" />
    <path
       id="path38"
       style="color:#000000;fill:#5f5f5f;fill-opacity:1;stroke-linecap:round;stroke-linejoin:round;-inkscape-stroke:none;paint-order:markers stroke fill"
       d="m 75.00019,99.00021 a 0.99999994,0.99999994 0 0 0 -0.999939,0.99994 0.99999994,0.99999994 0 0 0 0.999939,0.99994 0.99999994,0.99999994 0 0 0 0.729155,-0.31833 h 3.541902 a 0.99999994,0.99999994 0 0 0 0.729155,0.31833 0.99999994,0.99999994 0 0 0 0.728638,-0.31833 h 3.542419 a 0.99999994,0.99999994 0 0 0 0.729154,0.31833 0.99999994,0.99999994 0 0 0 0.728638,-0.31833 h 3.54242 a 0.99999994,0.99999994 0 0 0 0.728637,0.31833 0.99999994,0.99999994 0 0 0 0.729155,-0.31833 h 3.541902 a 0.99999994,0.99999994 0 0 0 0.729155,0.31833 0.99999994,0.99999994 0 0 0 0.728638,-0.31833 h 3.542419 a 0.99999994,0.99999994 0 0 0 0.728643,0.31833 0.99999994,0.99999994 0 0 0 0.99993,-0.99994 0.99999994,0.99999994 0 0 0 -0.99993,-0.99994 0.99999994,0.99999994 0 0 0 -0.728643,0.318327 H 95.732258 A 0.99999994,0.99999994 0 0 0 95.00052,99.00021 0.99999994,0.99999994 0 0 0 94.271365,99.318537 H 90.732047 A 0.99999994,0.99999994 0 0 0 90.000308,99.00021 0.99999994,0.99999994 0 0 0 89.271671,99.318537 H 85.731835 A 0.99999994,0.99999994 0 0 0 85.000613,99.00021 0.99999994,0.99999994 0 0 0 84.271459,99.318537 H 80.73214 A 0.99999994,0.99999994 0 0 0 80.000402,99.00021 0.99999994,0.99999994 0 0 0 79.271247,99.318537 H 75.731929 A 0.99999994,0.99999994 0 0 0 75.00019,99.00021 Z" />
    <path
       id="path39"
       style="color:#000000;fill:#5f5f5f;fill-opacity:1;stroke-linecap:round;stroke-linejoin:round;-inkscape-stroke:none;paint-order:markers stroke fill"
       d="m 110.00021,89.000089 a 0.99999994,0.99999994 0 0 0 -0.99993,0.999939 0.99999994,0.99999994 0 0 0 0.99993,0.999939 0.99999994,0.99999994 0 0 0 0.72915,-0.318327 h 3.5419 a 0.99999994,0.99999994 0 0 0 0.72916,0.318327 0.99999994,0.99999994 0 0 0 0.72864,-0.318327 h 3.54242 a 0.99999994,0.99999994 0 0 0 0.72915,0.318327 0.99999994,0.99999994 0 0 0 0.72864,-0.318327 h 3.54242 a 0.99999994,0.99999994 0 0 0 0.72864,0.318327 0.99999994,0.99999994 0 0 0 0.72915,-0.318327 h 3.5419 a 0.99999994,0.99999994 0 0 0 0.72916,0.318327 0.99999994,0.99999994 0 0 0 0.72863,-0.318327 h 3.54243 a 0.99999994,0.99999994 0 0 0 0.72863,0.318327 0.99999994,0.99999994 0 0 0 0.99994,-0.999939 0.99999994,0.99999994 0 0 0 -0.99994,-0.999939 0.99999994,0.99999994 0 0 0 -0.72863,0.318327 h -3.53932 a 0.99999994,0.99999994 0 0 0 -0.73174,-0.318327 0.99999994,0.99999994 0 0 0 -0.72916,0.318327 h -3.53932 a 0.99999994,0.99999994 0 0 0 -0.73173,-0.318327 0.99999994,0.99999994 0 0 0 -0.72864,0.318327 h -3.53984 a 0.99999994,0.99999994 0 0 0 -0.73122,-0.318327 0.99999994,0.99999994 0 0 0 -0.72915,0.318327 h -3.53932 a 0.99999994,0.99999994 0 0 0 -0.73174,-0.318327 0.99999994,0.99999994 0 0 0 -0.72916,0.318327 h -3.53931 a 0.99999994,0.99999994 0 0 0 -0.73174,-0.318327 z" />
    <path
       id="path40"
       style="color:#000000;fill:#5f5f5f;fill-opacity:1;stroke-linecap:round;stroke-linejoin:round;-inkscape-stroke:none;paint-order:markers stroke fill"
       d="m 110.00041,93.99997 a 0.99999994,0.99999994 0 0 0 -0.99993,0.999939 0.99999994,0.99999994 0 0 0 0.99993,0.999939 0.99999994,0.99999994 0 0 0 0.72915,-0.318327 h 3.54191 a 0.99999994,0.99999994 0 0 0 0.72915,0.318327 0.99999994,0.99999994 0 0 0 0.72864,-0.318327 h 3.54242 a 0.99999994,0.99999994 0 0 0 0.72915,0.318327 0.99999994,0.99999994 0 0 0 0.72864,-0.318327 h 3.54242 a 0.99999994,0.99999994 0 0 0 0.72864,0.318327 0.99999994,0.99999994 0 0 0 0.72915,-0.318327 h 3.5419 a 0.99999994,0.99999994 0 0 0 0.72916,0.318327 0.99999994,0.99999994 0 0 0 0.72864,-0.318327 h 3.54242 a 0.99999994,0.99999994 0 0 0 0.72863,0.318327 0.99999994,0.99999994 0 0 0 0.99994,-0.999939 0.99999994,0.99999994 0 0 0 -0.99994,-0.999939 0.99999994,0.99999994 0 0 0 -0.72863,0.318327 h -3.53932 a 0.99999994,0.99999994 0 0 0 -0.73174,-0.318327 0.99999994,0.99999994 0 0 0 -0.72916,0.318327 h -3.53932 a 0.99999994,0.99999994 0 0 0 -0.73173,-0.318327 0.99999994,0.99999994 0 0 0 -0.72864,0.318327 h -3.53984 a 0.99999994,0.99999994 0 0 0 -0.73122,-0.318327 0.99999994,0.99999994 0 0 0 -0.72915,0.318327 h -3.53932 a 0.99999994,0.99999994 0 0 0 -0.73174,-0.318327 0.99999994,0.99999994 0 0 0 -0.72915,0.318327 h -3.53932 a 0.99999994,0.99999994 0 0 0 -0.73174,-0.318327 z" />
    <path
       id="path41"
       style="color:#000000;fill:#5f5f5f;fill-opacity:1;stroke-linecap:round;stroke-linejoin:round;-inkscape-stroke:none;paint-order:markers stroke fill"
       d="m 110.00035,99.000031 a 0.99999994,0.99999994 0 0 0 -0.99993,0.999939 0.99999994,0.99999994 0 0 0 0.99993,0.99994 0.99999994,0.99999994 0 0 0 0.72915,-0.31833 h 3.5419 a 0.99999994,0.99999994 0 0 0 0.72916,0.31833 0.99999994,0.99999994 0 0 0 0.72864,-0.31833 h 3.54242 a 0.99999994,0.99999994 0 0 0 0.72915,0.31833 0.99999994,0.99999994 0 0 0 0.72864,-0.31833 h 3.54242 a 0.99999994,0.99999994 0 0 0 0.72864,0.31833 0.99999994,0.99999994 0 0 0 0.72915,-0.31833 h 3.5419 a 0.99999994,0.99999994 0 0 0 0.72916,0.31833 0.99999994,0.99999994 0 0 0 0.72864,-0.31833 h 3.54242 a 0.99999994,0.99999994 0 0 0 0.72863,0.31833 0.99999994,0.99999994 0 0 0 0.99994,-0.99994 0.99999994,0.99999994 0 0 0 -0.99994,-0.999939 0.99999994,0.99999994 0 0 0 -0.72863,0.318327 h -3.53932 a 0.99999994,0.99999994 0 0 0 -0.73174,-0.318327 0.99999994,0.99999994 0 0 0 -0.72916,0.318327 h -3.53932 a 0.99999994,0.99999994 0 0 0 -0.73173,-0.318327 0.99999994,0.99999994 0 0 0 -0.72864,0.318327 h -3.53984 a 0.99999994,0.99999994 0 0 0 -0.73122,-0.318327 0.99999994,0.99999994 0 0 0 -0.72915,0.318327 h -3.53932 a 0.99999994,0.99999994 0 0 0 -0.73174,-0.318327 0.99999994,0.99999994 0 0 0 -0.72916,0.318327 h -3.53931 a 0.99999994,0.99999994 0 0 0 -0.73174,-0.318327 z" />
    <path
       id="path42"
       style="color:#000000;fill:#5f5f5f;fill-opacity:1;stroke-linecap:round;stroke-linejoin:round;-inkscape-stroke:none;paint-order:markers stroke fill"
       d="m 75.000013,104.00021 a 0.99999994,0.99999994 0 0 0 -0.999939,0.99994 0.99999994,0.99999994 0 0 0 0.999939,0.99993 0.99999994,0.99999994 0 0 0 0.729155,-0.31832 h 3.541902 a 0.99999994,0.99999994 0 0 0 0.729155,0.31832 0.99999994,0.99999994 0 0 0 0.728638,-0.31832 h 3.542419 a 0.99999994,0.99999994 0 0 0 0.729154,0.31832 0.99999994,0.99999994 0 0 0 0.728638,-0.31832 h 3.54242 a 0.99999994,0.99999994 0 0 0 0.728637,0.31832 0.99999994,0.99999994 0 0 0 0.729155,-0.31832 h 3.541902 a 0.99999994,0.99999994 0 0 0 0.729155,0.31832 0.99999994,0.99999994 0 0 0 0.728638,-0.31832 H 99.2714 a 0.99999994,0.99999994 0 0 0 0.72864,0.31832 0.99999994,0.99999994 0 0 0 0.99994,-0.99993 0.99999994,0.99999994 0 0 0 -0.99994,-0.99994 0.99999994,0.99999994 0 0 0 -0.72864,0.31832 h -3.539319 a 0.99999994,0.99999994 0 0 0 -0.731738,-0.31832 0.99999994,0.99999994 0 0 0 -0.729155,0.31832 H 90.73187 a 0.99999994,0.99999994 0 0 0 -0.731739,-0.31832 0.99999994,0.99999994 0 0 0 -0.728637,0.31832 h -3.539836 a 0.99999994,0.99999994 0 0 0 -0.731222,-0.31832 0.99999994,0.99999994 0 0 0 -0.729154,0.31832 h -3.539319 a 0.99999994,0.99999994 0 0 0 -0.731738,-0.31832 0.99999994,0.99999994 0 0 0 -0.729155,0.31832 h -3.539318 a 0.99999994,0.99999994 0 0 0 -0.731739,-0.31832 z" />
    <path
       id="path43"
       style="color:#000000;fill:#5f5f5f;fill-opacity:1;stroke-linecap:round;stroke-linejoin:round;-inkscape-stroke:none;paint-order:markers stroke fill"
       d="m 110,114.00012 a 0.99999994,0.99999994 0 0 0 -0.99994,0.99994 A 0.99999994,0.99999994 0 0 0 110,116 a 0.99999994,0.99999994 0 0 0 0.72916,-0.31833 h 3.5419 a 0.99999994,0.99999994 0 0 0 0.72915,0.31833 0.99999994,0.99999994 0 0 0 0.72864,-0.31833 h 3.54242 a 0.99999994,0.99999994 0 0 0 0.72916,0.31833 0.99999994,0.99999994 0 0 0 0.72864,-0.31833 h 3.54242 a 0.99999994,0.99999994 0 0 0 0.72863,0.31833 0.99999994,0.99999994 0 0 0 0.72916,-0.31833 h 3.5419 a 0.99999994,0.99999994 0 0 0 0.72915,0.31833 0.99999994,0.99999994 0 0 0 0.72864,-0.31833 h 3.54242 a 0.99999994,0.99999994 0 0 0 0.72864,0.31833 0.99999994,0.99999994 0 0 0 0.99994,-0.99994 0.99999994,0.99999994 0 0 0 -0.99994,-0.99994 0.99999994,0.99999994 0 0 0 -0.72864,0.31832 h -3.53932 a 0.99999994,0.99999994 0 0 0 -0.73174,-0.31832 0.99999994,0.99999994 0 0 0 -0.72915,0.31832 h -3.53932 a 0.99999994,0.99999994 0 0 0 -0.73174,-0.31832 0.99999994,0.99999994 0 0 0 -0.72863,0.31832 h -3.53984 a 0.99999994,0.99999994 0 0 0 -0.73122,-0.31832 0.99999994,0.99999994 0 0 0 -0.72916,0.31832 h -3.53932 a 0.99999994,0.99999994 0 0 0 -0.73174,-0.31832 0.99999994,0.99999994 0 0 0 -0.72915,0.31832 h -3.53932 A 0.99999994,0.99999994 0 0 0 110,114.00012 Z" />
    <path
       id="path44"
       style="color:#000000;fill:#000000;fill-opacity:1;stroke-linecap:round;stroke-linejoin:round;-inkscape-stroke:none;paint-order:markers stroke fill"
       d="m 75.000153,114.00015 a 0.99999994,0.99999994 0 0 0 -0.999939,0.99994 0.99999994,0.99999994 0 0 0 0.999939,0.99994 0.99999994,0.99999994 0 0 0 0.729155,-0.31833 h 3.541902 a 0.99999994,0.99999994 0 0 0 0.729155,0.31833 0.99999994,0.99999994 0 0 0 0.728638,-0.31833 h 3.542419 a 0.99999994,0.99999994 0 0 0 0.729154,0.31833 0.99999994,0.99999994 0 0 0 0.728638,-0.31833 h 3.54242 a 0.99999994,0.99999994 0 0 0 0.728637,0.31833 0.99999994,0.99999994 0 0 0 0.729155,-0.31833 h 3.541902 a 0.99999994,0.99999994 0 0 0 0.729155,0.31833 0.99999994,0.99999994 0 0 0 0.728638,-0.31833 h 3.542419 a 0.99999994,0.99999994 0 0 0 0.72864,0.31833 0.99999994,0.99999994 0 0 0 0.99994,-0.99994 0.99999994,0.99999994 0 0 0 -0.99994,-0.99994 0.99999994,0.99999994 0 0 0 -0.72864,0.31833 h -3.539319 a 0.99999994,0.99999994 0 0 0 -0.731738,-0.31833 0.99999994,0.99999994 0 0 0 -0.729155,0.31833 H 90.73201 a 0.99999994,0.99999994 0 0 0 -0.731739,-0.31833 0.99999994,0.99999994 0 0 0 -0.728637,0.31833 h -3.539836 a 0.99999994,0.99999994 0 0 0 -0.731222,-0.31833 0.99999994,0.99999994 0 0 0 -0.729154,0.31833 h -3.539319 a 0.99999994,0.99999994 0 0 0 -0.731738,-0.31833 0.99999994,0.99999994 0 0 0 -0.729155,0.31833 h -3.539318 a 0.99999994,0.99999994 0 0 0 -0.731739,-0.31833 z" />
    <path
       id="path45"
       style="color:#000000;fill:#5f5f5f;fill-opacity:1;stroke-linecap:round;stroke-linejoin:round;-inkscape-stroke:none;paint-order:markers stroke fill"
       d="m 110.00017,104.00003 a 0.99999994,0.99999994 0 0 0 -0.99993,0.99994 0.99999994,0.99999994 0 0 0 0.99993,0.99994 0.99999994,0.99999994 0 0 0 0.72916,-0.31833 h 3.5419 a 0.99999994,0.99999994 0 0 0 0.72915,0.31833 0.99999994,0.99999994 0 0 0 0.72864,-0.31833 h 3.54242 a 0.99999994,0.99999994 0 0 0 0.72915,0.31833 0.99999994,0.99999994 0 0 0 0.72864,-0.31833 h 3.54242 a 0.99999994,0.99999994 0 0 0 0.72864,0.31833 0.99999994,0.99999994 0 0 0 0.72915,-0.31833 h 3.54191 a 0.99999994,0.99999994 0 0 0 0.72915,0.31833 0.99999994,0.99999994 0 0 0 0.72864,-0.31833 h 3.54242 a 0.99999994,0.99999994 0 0 0 0.72863,0.31833 0.99999994,0.99999994 0 0 0 0.99994,-0.99994 0.99999994,0.99999994 0 0 0 -0.99994,-0.99994 0.99999994,0.99999994 0 0 0 -0.72863,0.31832 h -3.53932 a 0.99999994,0.99999994 0 0 0 -0.73174,-0.31832 0.99999994,0.99999994 0 0 0 -0.72915,0.31832 h -3.53932 a 0.99999994,0.99999994 0 0 0 -0.73174,-0.31832 0.99999994,0.99999994 0 0 0 -0.72864,0.31832 h -3.53983 a 0.99999994,0.99999994 0 0 0 -0.73123,-0.31832 0.99999994,0.99999994 0 0 0 -0.72915,0.31832 h -3.53932 a 0.99999994,0.99999994 0 0 0 -0.73174,-0.31832 0.99999994,0.99999994 0 0 0 -0.72915,0.31832 h -3.53932 a 0.99999994,0.99999994 0 0 0 -0.73174,-0.31832 z" />
    <path
       id="path46"
       style="color:#000000;fill:#5f5f5f;fill-opacity:1;stroke-linecap:round;stroke-linejoin:round;-inkscape-stroke:none;paint-order:markers stroke fill"
       d="m 110.00037,108.99991 a 0.99999994,0.99999994 0 0 0 -0.99993,0.99994 0.99999994,0.99999994 0 0 0 0.99993,0.99994 0.99999994,0.99999994 0 0 0 0.72916,-0.31833 h 3.5419 a 0.99999994,0.99999994 0 0 0 0.72915,0.31833 0.99999994,0.99999994 0 0 0 0.72864,-0.31833 h 3.54242 a 0.99999994,0.99999994 0 0 0 0.72915,0.31833 0.99999994,0.99999994 0 0 0 0.72864,-0.31833 h 3.54242 a 0.99999994,0.99999994 0 0 0 0.72864,0.31833 0.99999994,0.99999994 0 0 0 0.72915,-0.31833 h 3.54191 a 0.99999994,0.99999994 0 0 0 0.72915,0.31833 0.99999994,0.99999994 0 0 0 0.72864,-0.31833 h 3.54242 a 0.99999994,0.99999994 0 0 0 0.72863,0.31833 0.99999994,0.99999994 0 0 0 0.99994,-0.99994 0.99999994,0.99999994 0 0 0 -0.99994,-0.99994 0.99999994,0.99999994 0 0 0 -0.72863,0.31833 h -3.53932 a 0.99999994,0.99999994 0 0 0 -0.73174,-0.31833 0.99999994,0.99999994 0 0 0 -0.72915,0.31833 h -3.53932 a 0.99999994,0.99999994 0 0 0 -0.73174,-0.31833 0.99999994,0.99999994 0 0 0 -0.72864,0.31833 h -3.53983 a 0.99999994,0.99999994 0 0 0 -0.73123,-0.31833 0.99999994,0.99999994 0 0 0 -0.72915,0.31833 h -3.53932 a 0.99999994,0.99999994 0 0 0 -0.73174,-0.31833 0.99999994,0.99999994 0 0 0 -0.72915,0.31833 h -3.53932 a 0.99999994,0.99999994 0 0 0 -0.73174,-0.31833 z" />
    <text
       xml:space="preserve"
       style="font-size:3.52777px;line-height:1;font-family:'Berlin Sans FB';-inkscape-font-specification:'Berlin Sans FB, Normal';font-variation-settings:normal;text-align:center;text-decoration-color:#000000;letter-spacing:0px;word-spacing:0px;text-anchor:middle;vector-effect:none;fill:#f50000;fill-opacity:1;stroke:none;stroke-width:1;stroke-linecap:round;stroke-linejoin:round;stroke-miterlimit:4;stroke-dasharray:none;stroke-dashoffset:0;stroke-opacity:1;-inkscape-stroke:none;paint-order:markers stroke fill;stop-color:#000000"
       x="66.636787"
       y="81.192795"
       id="text25"><tspan
         sodipodi:role="line"
         id="tspan25"
         style="font-variation-settings:normal;vector-effect:none;fill:#f50000;fill-opacity:1;stroke:none;stroke-width:1;stroke-linecap:round;stroke-linejoin:round;stroke-miterlimit:4;stroke-dasharray:none;stroke-dashoffset:0;stroke-opacity:1;-inkscape-stroke:none;paint-order:markers stroke fill;stop-color:#000000;stop-opacity:1"
         x="66.636787"
         y="81.192795">12V</tspan></text>
    <text
       xml:space="preserve"
       style="font-size:3.52777px;line-height:1;font-family:'Berlin Sans FB';-inkscape-font-specification:'Berlin Sans FB, Normal';font-variation-settings:normal;text-align:center;text-decoration-color:#000000;letter-spacing:0px;word-spacing:0px;text-anchor:middle;vector-effect:none;fill:#f50000;fill-opacity:1;stroke:none;stroke-width:1;stroke-linecap:round;stroke-linejoin:round;stroke-miterlimit:4;stroke-dasharray:none;stroke-dashoffset:0;stroke-opacity:1;-inkscape-stroke:none;paint-order:markers stroke fill;stop-color:#000000"
       x="142.92999"
       y="86.18499"
       id="text26"><tspan
         sodipodi:role="line"
         id="tspan26"
         style="font-variation-settings:normal;vector-effect:none;fill:#f50000;fill-opacity:1;stroke:none;stroke-width:1;stroke-linecap:round;stroke-linejoin:round;stroke-miterlimit:4;stroke-dasharray:none;stroke-dashoffset:0;stroke-opacity:1;-inkscape-stroke:none;paint-order:markers stroke fill;stop-color:#000000;stop-opacity:1"
         x="142.92999"
         y="86.18499">5V</tspan></text>
    <path
       id="path26"
       style="color:#000000;fill:#f50000;stroke-linecap:round;stroke-linejoin:round;-inkscape-stroke:none;paint-order:markers stroke fill"
       d="M 109.99994,84.000068 A 0.99999994,0.99999994 0 0 0 109,84.999998 a 0.99999994,0.99999994 0 0 0 0.99994,0.99994 0.99999994,0.99999994 0 0 0 0.72915,-0.31832 h 3.54191 a 0.99999994,0.99999994 0 0 0 0.72915,0.31832 0.99999994,0.99999994 0 0 0 0.72864,-0.31832 h 3.54242 a 0.99999994,0.99999994 0 0 0 0.72864,0.31832 0.99999994,0.99999994 0 0 0 0.72915,-0.31832 h 3.54242 a 0.99999994,0.99999994 0 0 0 0.72864,0.31832 0.99999994,0.99999994 0 0 0 0.72915,-0.31832 h 3.5419 a 0.99999994,0.99999994 0 0 0 0.72916,0.31832 0.99999994,0.99999994 0 0 0 0.72864,-0.31832 h 3.54242 a 0.99999994,0.99999994 0 0 0 0.72864,0.31832 0.99999994,0.99999994 0 0 0 0.99993,-0.99994 0.99999994,0.99999994 0 0 0 -0.99993,-0.99993 0.99999994,0.99999994 0 0 0 -0.72864,0.31832 h -3.53984 a 0.99999994,0.99999994 0 0 0 -0.73122,-0.31832 0.99999994,0.99999994 0 0 0 -0.72916,0.31832 h -3.53983 a 0.99999994,0.99999994 0 0 0 -0.73122,-0.31832 0.99999994,0.99999994 0 0 0 -0.72864,0.31832 h -3.54035 a 0.99999994,0.99999994 0 0 0 -0.73122,-0.31832 0.99999994,0.99999994 0 0 0 -0.72864,0.31832 h -3.53984 a 0.99999994,0.99999994 0 0 0 -0.73122,-0.31832 0.99999994,0.99999994 0 0 0 -0.72915,0.31832 h -3.53984 a 0.99999994,0.99999994 0 0 0 -0.73122,-0.31832 z" />
    <path
       style="font-variation-settings:normal;fill:none;fill-opacity:1;stroke:#f50000;stroke-width:0.5;stroke-linecap:round;stroke-linejoin:round;stroke-miterlimit:4;stroke-dasharray:none;stroke-dashoffset:0;stroke-opacity:1;paint-order:markers stroke fill;stop-color:#000000"
       d="m 136.9999,84.999998 h 2"
       id="path28"
       sodipodi:nodetypes="cc" />
    <path
       style="font-variation-settings:normal;fill:none;fill-opacity:1;stroke:#f50000;stroke-width:0.5;stroke-linecap:round;stroke-linejoin:round;stroke-miterlimit:4;stroke-dasharray:none;stroke-dashoffset:0;stroke-opacity:1;paint-order:markers stroke fill;stop-color:#000000"
       d="m 137.9999,83.999998 v 2"
       id="path29"
       sodipodi:nodetypes="cc" />
    <g
       id="g16">
      <rect
         style="opacity:1;fill:#d1d1d1;fill-opacity:1;stroke:#000000;stroke-width:1;stroke-linecap:round;stroke-linejoin:round;stroke-miterlimit:4;stroke-dasharray:none;stroke-dashoffset:0;stroke-opacity:1;paint-order:markers stroke fill"
         id="rect77"
         width="35"
         height="35"
         x="15.000009"
         y="85" />
      <path
         id="path51"
         style="color:#000000;fill:#005993;stroke-linecap:round;stroke-linejoin:round;-inkscape-stroke:none;paint-order:markers stroke fill"
         d="m 54.999825,93.575996 c -0.518618,0.0016 -0.995251,0.28537 -1.243852,0.740524 l -8.074349,6.13e-4 c -0.376584,-3.39e-4 -0.681951,0.305027 -0.681613,0.681612 -3.38e-4,0.376584 0.305029,0.68195 0.681613,0.681612 l 8.074349,-6.13e-4 c 0.248465,0.455353 0.725125,0.739329 1.243852,0.74104 0.785785,1.84e-4 1.422836,-0.636867 1.422652,-1.422652 -1.01e-4,-0.785584 -0.637068,-1.42232 -1.422652,-1.422136 z"
         sodipodi:nodetypes="ccccccccc" />
      <path
         id="path52"
         style="color:#000000;fill:#005993;stroke-linecap:round;stroke-linejoin:round;-inkscape-stroke:none;paint-order:markers stroke fill"
         d="m 54.999826,88.576621 c -0.518618,0.0016 -0.995251,0.28537 -1.243852,0.740524 l -8.074349,6.13e-4 c -0.376584,-3.39e-4 -0.681951,0.305027 -0.681612,0.681612 -3.39e-4,0.376584 0.305028,0.68195 0.681612,0.681612 l 8.074349,-6.13e-4 c 0.248465,0.455353 0.725125,0.739329 1.243852,0.74104 0.785785,1.84e-4 1.422836,-0.636867 1.422652,-1.422652 -1.01e-4,-0.785584 -0.637068,-1.42232 -1.422652,-1.422136 z"
         sodipodi:nodetypes="ccccccccc" />
      <path
         id="path53"
         style="color:#000000;fill:#005993;stroke-linecap:round;stroke-linejoin:round;-inkscape-stroke:none;paint-order:markers stroke fill"
         d="m 54.999825,103.576 c -0.518618,0.002 -0.995251,0.28537 -1.243852,0.74052 l -8.074349,6.1e-4 c -0.376584,-3.4e-4 -0.681951,0.30503 -0.681613,0.68161 -3.38e-4,0.37659 0.305029,0.68195 0.681613,0.68162 l 8.074349,-6.2e-4 c 0.248465,0.45536 0.725125,0.73933 1.243852,0.74104 0.785785,1.9e-4 1.422836,-0.63686 1.422652,-1.42265 -1.01e-4,-0.78558 -0.637068,-1.42232 -1.422652,-1.42213 z"
         sodipodi:nodetypes="ccccccccc" />
      <path
         id="path54"
         style="color:#000000;fill:#005993;stroke-linecap:round;stroke-linejoin:round;-inkscape-stroke:none;paint-order:markers stroke fill"
         d="m 54.999826,98.57662 c -0.518618,0.0016 -0.995251,0.28537 -1.243852,0.740524 l -8.074349,6.13e-4 c -0.376584,-3.39e-4 -0.681952,0.305027 -0.681612,0.681612 -3.4e-4,0.376581 0.305028,0.681951 0.681612,0.681611 l 8.074349,-6.1e-4 c 0.248465,0.45535 0.725125,0.73933 1.243852,0.74104 0.785785,1.8e-4 1.422836,-0.63687 1.422652,-1.422654 -1.01e-4,-0.785584 -0.637068,-1.42232 -1.422652,-1.422136 z"
         sodipodi:nodetypes="ccccccccc" />
      <path
         id="path55"
         style="color:#000000;fill:#005993;stroke-linecap:round;stroke-linejoin:round;-inkscape-stroke:none;paint-order:markers stroke fill"
         d="m 54.999825,113.57599 c -0.518618,0.002 -0.995251,0.28537 -1.243852,0.74053 l -8.074349,6.1e-4 c -0.376584,-3.4e-4 -0.681952,0.30503 -0.681614,0.68161 -3.38e-4,0.37659 0.30503,0.68195 0.681614,0.68161 l 8.074349,-6.1e-4 c 0.248465,0.45535 0.725125,0.73933 1.243852,0.74104 0.785785,1.8e-4 1.422836,-0.63687 1.422652,-1.42265 -1.01e-4,-0.78558 -0.637068,-1.42232 -1.422652,-1.42214 z"
         sodipodi:nodetypes="ccccccccc" />
      <path
         id="path56"
         style="color:#000000;fill:#005993;stroke-linecap:round;stroke-linejoin:round;-inkscape-stroke:none;paint-order:markers stroke fill"
         d="m 54.999826,108.57662 c -0.518618,0.002 -0.995251,0.28537 -1.243852,0.74052 l -8.074349,6.2e-4 c -0.376584,-3.4e-4 -0.681952,0.30502 -0.681612,0.68161 -3.4e-4,0.37658 0.305028,0.68195 0.681612,0.68161 l 8.074349,-6.1e-4 c 0.248465,0.45535 0.725125,0.73932 1.243852,0.74104 0.785785,1.8e-4 1.422836,-0.63687 1.422652,-1.42266 -1.01e-4,-0.78558 -0.637068,-1.42232 -1.422652,-1.42213 z"
         sodipodi:nodetypes="ccccccccc" />
    </g>
    <g
       id="g15">
      <rect
         style="opacity:1;fill:#d1d1d1;fill-opacity:1;stroke:#000000;stroke-width:1;stroke-linecap:round;stroke-linejoin:round;stroke-miterlimit:4;stroke-dasharray:none;stroke-dashoffset:0;stroke-opacity:1;paint-order:markers stroke fill"
         id="rect76"
         width="35"
         height="15"
         x="15.000009"
         y="65" />
      <path
         id="path49"
         style="color:#000000;fill:#005993;stroke-linecap:round;stroke-linejoin:round;-inkscape-stroke:none;paint-order:markers stroke fill"
         d="m 54.999825,73.577248 c -0.518618,0.0016 -0.995251,0.28537 -1.243852,0.740524 l -8.074349,6.13e-4 c -0.376584,-3.39e-4 -0.68195,0.305027 -0.681612,0.681612 -3.38e-4,0.376584 0.305028,0.68195 0.681612,0.681612 l 8.074349,-6.13e-4 c 0.248465,0.455353 0.725125,0.739329 1.243852,0.74104 0.785785,1.84e-4 1.422836,-0.636867 1.422652,-1.422652 -1.01e-4,-0.785584 -0.637068,-1.42232 -1.422652,-1.422136 z"
         sodipodi:nodetypes="ccccccccc" />
      <path
         id="path50"
         style="color:#000000;fill:#005993;stroke-linecap:round;stroke-linejoin:round;-inkscape-stroke:none;paint-order:markers stroke fill"
         d="m 54.999826,68.577873 c -0.518618,0.0016 -0.995251,0.28537 -1.243852,0.740524 l -8.074349,6.13e-4 c -0.376584,-3.39e-4 -0.681951,0.305027 -0.681612,0.681612 -3.39e-4,0.376584 0.305028,0.68195 0.681612,0.681612 l 8.074349,-6.13e-4 c 0.248465,0.455353 0.725125,0.739329 1.243852,0.74104 0.785785,1.84e-4 1.422836,-0.636867 1.422652,-1.422652 -1.01e-4,-0.785584 -0.637068,-1.42232 -1.422652,-1.422136 z"
         sodipodi:nodetypes="ccccccccc" />
    </g>
    <g
       id="g12">
      <rect
         style="opacity:1;fill:#d1d1d1;fill-opacity:1;stroke:#000000;stroke-width:1;stroke-linecap:round;stroke-linejoin:round;stroke-miterlimit:4;stroke-dasharray:none;stroke-dashoffset:0;stroke-opacity:1;paint-order:markers stroke fill"
         id="rect75"
         width="35.000004"
         height="55"
         x="160"
         y="65" />
      <path
         id="path60"
         style="color:#000000;fill:#005993;stroke-linecap:round;stroke-linejoin:round;-inkscape-stroke:none;paint-order:markers stroke fill"
         d="m 155.00019,88.576619 c 0.51861,0.0016 0.99525,0.28537 1.24385,0.740524 l 8.07435,6.13e-4 c 0.37658,-3.39e-4 0.68195,0.305027 0.68161,0.681612 3.4e-4,0.376584 -0.30503,0.68195 -0.68161,0.681612 l -8.07435,-6.13e-4 c -0.24847,0.455353 -0.72513,0.739329 -1.24385,0.74104 -0.78579,1.84e-4 -1.42284,-0.636867 -1.42266,-1.422652 1e-4,-0.785584 0.63707,-1.42232 1.42266,-1.422136 z"
         sodipodi:nodetypes="ccccccccc" />
      <path
         id="path57"
         style="color:#000000;fill:#005993;stroke-linecap:round;stroke-linejoin:round;-inkscape-stroke:none;paint-order:markers stroke fill"
         d="m 155.00019,73.577251 c 0.51862,0.0016 0.99525,0.28537 1.24385,0.740524 l 8.07435,6.13e-4 C 164.69498,74.318049 165.00034,74.623415 165,75 c 3.4e-4,0.376584 -0.30502,0.68195 -0.68161,0.681612 l -8.07435,-6.13e-4 c -0.24846,0.455353 -0.72512,0.739329 -1.24385,0.74104 -0.78578,1.84e-4 -1.42284,-0.636867 -1.42265,-1.422652 1e-4,-0.785584 0.63707,-1.42232 1.42265,-1.422136 z"
         sodipodi:nodetypes="ccccccccc" />
      <path
         id="path58"
         style="color:#000000;fill:#005993;stroke-linecap:round;stroke-linejoin:round;-inkscape-stroke:none;paint-order:markers stroke fill"
         d="m 155.00019,68.577876 c 0.51862,0.0016 0.99525,0.28537 1.24385,0.740524 l 8.07435,6.13e-4 c 0.37658,-3.39e-4 0.68195,0.305027 0.68161,0.681612 3.4e-4,0.376584 -0.30503,0.68195 -0.68161,0.681612 l -8.07435,-6.13e-4 c -0.24846,0.455353 -0.72512,0.739329 -1.24385,0.74104 -0.78579,1.84e-4 -1.42284,-0.636867 -1.42265,-1.422652 1e-4,-0.785584 0.63707,-1.42232 1.42265,-1.422136 z"
         sodipodi:nodetypes="ccccccccc" />
      <path
         id="path59"
         style="color:#000000;fill:#005993;stroke-linecap:round;stroke-linejoin:round;-inkscape-stroke:none;paint-order:markers stroke fill"
         d="m 155.00019,93.575994 c 0.51861,0.0016 0.99525,0.28537 1.24385,0.740524 l 8.07435,6.13e-4 c 0.37658,-3.39e-4 0.68195,0.305027 0.68161,0.681612 3.4e-4,0.376584 -0.30503,0.68195 -0.68161,0.681612 l -8.07435,-6.13e-4 c -0.24847,0.455353 -0.72513,0.739329 -1.24385,0.74104 -0.78579,1.84e-4 -1.42284,-0.636867 -1.42266,-1.422652 1.1e-4,-0.785584 0.63707,-1.42232 1.42266,-1.422136 z"
         sodipodi:nodetypes="ccccccccc" />
      <path
         id="path61"
         style="color:#000000;fill:#005993;stroke-linecap:round;stroke-linejoin:round;-inkscape-stroke:none;paint-order:markers stroke fill"
         d="m 155.00019,103.57599 c 0.51861,0.002 0.99525,0.28537 1.24385,0.74053 l 8.07435,6.1e-4 c 0.37658,-3.4e-4 0.68195,0.30503 0.68161,0.68161 3.4e-4,0.37659 -0.30503,0.68195 -0.68161,0.68161 l -8.07435,-6.1e-4 c -0.24847,0.45535 -0.72513,0.73933 -1.24385,0.74104 -0.78579,1.8e-4 -1.42284,-0.63687 -1.42266,-1.42265 1.1e-4,-0.78558 0.63707,-1.42232 1.42266,-1.42214 z"
         sodipodi:nodetypes="ccccccccc" />
      <path
         id="path62"
         style="color:#000000;fill:#005993;stroke-linecap:round;stroke-linejoin:round;-inkscape-stroke:none;paint-order:markers stroke fill"
         d="m 155.00019,98.576618 c 0.51861,0.0016 0.99525,0.28537 1.24385,0.740524 l 8.07435,6.13e-4 c 0.37658,-3.39e-4 0.68195,0.305027 0.68161,0.681612 3.4e-4,0.376583 -0.30503,0.681953 -0.68161,0.681613 l -8.07435,-6.1e-4 c -0.24847,0.45535 -0.72513,0.73932 -1.24385,0.74104 -0.78579,1.8e-4 -1.42284,-0.63687 -1.42266,-1.422656 1e-4,-0.785584 0.63707,-1.42232 1.42266,-1.422136 z"
         sodipodi:nodetypes="ccccccccc" />
      <path
         id="path63"
         style="color:#000000;fill:#005993;stroke-linecap:round;stroke-linejoin:round;-inkscape-stroke:none;paint-order:markers stroke fill"
         d="m 155.00019,113.57662 c 0.51861,0.002 0.99525,0.28537 1.24385,0.74052 l 8.07435,6.2e-4 c 0.37658,-3.4e-4 0.68195,0.30502 0.68161,0.68161 3.4e-4,0.37658 -0.30503,0.68195 -0.68161,0.68161 l -8.07435,-6.1e-4 c -0.24847,0.45535 -0.72513,0.73932 -1.24385,0.74104 -0.78579,1.8e-4 -1.42284,-0.63687 -1.42266,-1.42266 1e-4,-0.78558 0.63707,-1.42232 1.42266,-1.42213 z"
         sodipodi:nodetypes="ccccccccc" />
    </g>
    <text
       xml:space="preserve"
       style="font-size:8.92863px;line-height:1;font-family:'Berlin Sans FB';-inkscape-font-specification:'Berlin Sans FB, Normal';font-variation-settings:normal;text-align:center;text-decoration-color:#000000;letter-spacing:0px;word-spacing:0px;text-anchor:middle;opacity:1;fill:none;fill-opacity:1;stroke:#404b53;stroke-width:0.499999;stroke-linecap:round;stroke-linejoin:round;stroke-miterlimit:4;stroke-dasharray:none;stroke-dashoffset:0;stroke-opacity:1;paint-order:markers stroke fill"
       x="40.000874"
       y="71.208366"
       id="text65"><tspan
         sodipodi:role="line"
         id="tspan65"
         style="font-style:normal;font-variant:normal;font-weight:normal;font-stretch:normal;font-size:3.52778px;font-family:'Berlin Sans FB';-inkscape-font-specification:'Berlin Sans FB, Normal';font-variant-ligatures:normal;font-variant-caps:normal;font-variant-numeric:normal;font-variant-east-asian:normal;fill:#5f5f5f;fill-opacity:1;stroke:none;stroke-width:0.5"
         x="40.000874"
         y="71.208366">GND</tspan></text>
    <text
       xml:space="preserve"
       style="font-size:8.92863px;line-height:1;font-family:'Berlin Sans FB';-inkscape-font-specification:'Berlin Sans FB, Normal';font-variation-settings:normal;text-align:center;text-decoration-color:#000000;letter-spacing:0px;word-spacing:0px;text-anchor:middle;opacity:1;fill:none;fill-opacity:1;stroke:#404b53;stroke-width:0.499999;stroke-linecap:round;stroke-linejoin:round;stroke-miterlimit:4;stroke-dasharray:none;stroke-dashoffset:0;stroke-opacity:1;paint-order:markers stroke fill"
       x="41.223022"
       y="76.192863"
       id="text66"><tspan
         sodipodi:role="line"
         id="tspan66"
         style="font-style:normal;font-variant:normal;font-weight:normal;font-stretch:normal;font-size:3.52778px;font-family:'Berlin Sans FB';-inkscape-font-specification:'Berlin Sans FB, Normal';font-variant-ligatures:normal;font-variant-caps:normal;font-variant-numeric:normal;font-variant-east-asian:normal;fill:#5f5f5f;fill-opacity:1;stroke:none;stroke-width:0.5"
         x="41.223022"
         y="76.192863">12V</tspan></text>
    <text
       xml:space="preserve"
       style="font-size:8.92863px;line-height:1;font-family:'Berlin Sans FB';-inkscape-font-specification:'Berlin Sans FB, Normal';font-variation-settings:normal;text-align:center;text-decoration-color:#000000;letter-spacing:0px;word-spacing:0px;text-anchor:middle;opacity:1;fill:none;fill-opacity:1;stroke:#404b53;stroke-width:0.499999;stroke-linecap:round;stroke-linejoin:round;stroke-miterlimit:4;stroke-dasharray:none;stroke-dashoffset:0;stroke-opacity:1;paint-order:markers stroke fill"
       x="170.00087"
       y="71.208366"
       id="text67"><tspan
         sodipodi:role="line"
         id="tspan67"
         style="font-style:normal;font-variant:normal;font-weight:normal;font-stretch:normal;font-size:3.52778px;font-family:'Berlin Sans FB';-inkscape-font-specification:'Berlin Sans FB, Normal';font-variant-ligatures:normal;font-variant-caps:normal;font-variant-numeric:normal;font-variant-east-asian:normal;fill:#5f5f5f;fill-opacity:1;stroke:none;stroke-width:0.5"
         x="170.00087"
         y="71.208366">GND</tspan></text>
    <text
       xml:space="preserve"
       style="font-size:8.92863px;line-height:1;font-family:'Berlin Sans FB';-inkscape-font-specification:'Berlin Sans FB, Normal';font-variation-settings:normal;text-align:center;text-decoration-color:#000000;letter-spacing:0px;word-spacing:0px;text-anchor:middle;opacity:1;fill:none;fill-opacity:1;stroke:#404b53;stroke-width:0.499999;stroke-linecap:round;stroke-linejoin:round;stroke-miterlimit:4;stroke-dasharray:none;stroke-dashoffset:0;stroke-opacity:1;paint-order:markers stroke fill"
       x="168.34378"
       y="76.192863"
       id="text68"><tspan
         sodipodi:role="line"
         id="tspan68"
         style="font-style:normal;font-variant:normal;font-weight:normal;font-stretch:normal;font-size:3.52778px;font-family:'Berlin Sans FB';-inkscape-font-specification:'Berlin Sans FB, Normal';font-variant-ligatures:normal;font-variant-caps:normal;font-variant-numeric:normal;font-variant-east-asian:normal;fill:#5f5f5f;fill-opacity:1;stroke:none;stroke-width:0.5"
         x="168.34378"
         y="76.192863">5V</tspan></text>
    <text
       xml:space="preserve"
       style="font-size:8.92863px;line-height:1;font-family:'Berlin Sans FB';-inkscape-font-specification:'Berlin Sans FB, Normal';font-variation-settings:normal;text-align:center;text-decoration-color:#000000;letter-spacing:0px;word-spacing:0px;text-anchor:middle;opacity:1;fill:none;fill-opacity:1;stroke:#404b53;stroke-width:0.499999;stroke-linecap:round;stroke-linejoin:round;stroke-miterlimit:4;stroke-dasharray:none;stroke-dashoffset:0;stroke-opacity:1;paint-order:markers stroke fill"
       x="175.17197"
       y="116.18511"
       id="text69"><tspan
         sodipodi:role="line"
         id="tspan69"
         style="font-style:normal;font-variant:normal;font-weight:normal;font-stretch:normal;font-size:3.52778px;font-family:'Berlin Sans FB';-inkscape-font-specification:'Berlin Sans FB, Normal';font-variant-ligatures:normal;font-variant-caps:normal;font-variant-numeric:normal;font-variant-east-asian:normal;fill:#5f5f5f;fill-opacity:1;stroke:none;stroke-width:0.5"
         x="175.17197"
         y="116.18511">6-LED Data</tspan></text>
    <text
       xml:space="preserve"
       style="font-size:8.92863px;line-height:1;font-family:'Berlin Sans FB';-inkscape-font-specification:'Berlin Sans FB, Normal';font-variation-settings:normal;text-align:center;text-decoration-color:#000000;letter-spacing:0px;word-spacing:0px;text-anchor:middle;opacity:1;fill:none;fill-opacity:1;stroke:#404b53;stroke-width:0.499999;stroke-linecap:round;stroke-linejoin:round;stroke-miterlimit:4;stroke-dasharray:none;stroke-dashoffset:0;stroke-opacity:1;paint-order:markers stroke fill"
       x="41.775963"
       y="91.208366"
       id="text70"><tspan
         sodipodi:role="line"
         id="tspan70"
         style="font-style:normal;font-variant:normal;font-weight:normal;font-stretch:normal;font-size:3.52778px;font-family:'Berlin Sans FB';-inkscape-font-specification:'Berlin Sans FB, Normal';font-variant-ligatures:normal;font-variant-caps:normal;font-variant-numeric:normal;font-variant-east-asian:normal;fill:#5f5f5f;fill-opacity:1;stroke:none;stroke-width:0.5"
         x="41.775963"
         y="91.208366">CS</tspan></text>
    <text
       xml:space="preserve"
       style="font-size:8.92863px;line-height:1;font-family:'Berlin Sans FB';-inkscape-font-specification:'Berlin Sans FB, Normal';font-variation-settings:normal;text-align:center;text-decoration-color:#000000;letter-spacing:0px;word-spacing:0px;text-anchor:middle;opacity:1;fill:none;fill-opacity:1;stroke:#404b53;stroke-width:0.499999;stroke-linecap:round;stroke-linejoin:round;stroke-miterlimit:4;stroke-dasharray:none;stroke-dashoffset:0;stroke-opacity:1;paint-order:markers stroke fill"
       x="40.653721"
       y="96.192863"
       id="text71"><tspan
         sodipodi:role="line"
         id="tspan71"
         style="font-style:normal;font-variant:normal;font-weight:normal;font-stretch:normal;font-size:3.52778px;font-family:'Berlin Sans FB';-inkscape-font-specification:'Berlin Sans FB, Normal';font-variant-ligatures:normal;font-variant-caps:normal;font-variant-numeric:normal;font-variant-east-asian:normal;fill:#5f5f5f;fill-opacity:1;stroke:none;stroke-width:0.5"
         x="40.653721"
         y="96.192863">SCK</tspan></text>
    <text
       xml:space="preserve"
       style="font-size:8.92863px;line-height:1;font-family:'Berlin Sans FB';-inkscape-font-specification:'Berlin Sans FB, Normal';font-variation-settings:normal;text-align:center;text-decoration-color:#000000;letter-spacing:0px;word-spacing:0px;text-anchor:middle;opacity:1;fill:none;fill-opacity:1;stroke:#404b53;stroke-width:0.499999;stroke-linecap:round;stroke-linejoin:round;stroke-miterlimit:4;stroke-dasharray:none;stroke-dashoffset:0;stroke-opacity:1;paint-order:markers stroke fill"
       x="39.826035"
       y="101.20837"
       id="text72"><tspan
         sodipodi:role="line"
         id="tspan72"
         style="font-style:normal;font-variant:normal;font-weight:normal;font-stretch:normal;font-size:3.52778px;font-family:'Berlin Sans FB';-inkscape-font-specification:'Berlin Sans FB, Normal';font-variant-ligatures:normal;font-variant-caps:normal;font-variant-numeric:normal;font-variant-east-asian:normal;fill:#5f5f5f;fill-opacity:1;stroke:none;stroke-width:0.5"
         x="39.826035"
         y="101.20837">MOSI</tspan></text>
    <text
       xml:space="preserve"
       style="font-size:8.92863px;line-height:1;font-family:'Berlin Sans FB';-inkscape-font-specification:'Berlin Sans FB, Normal';font-variation-settings:normal;text-align:center;text-decoration-color:#000000;letter-spacing:0px;word-spacing:0px;text-anchor:middle;opacity:1;fill:none;fill-opacity:1;stroke:#404b53;stroke-width:0.499999;stroke-linecap:round;stroke-linejoin:round;stroke-miterlimit:4;stroke-dasharray:none;stroke-dashoffset:0;stroke-opacity:1;paint-order:markers stroke fill"
       x="39.746799"
       y="106.19286"
       id="text73"><tspan
         sodipodi:role="line"
         id="tspan73"
         style="font-style:normal;font-variant:normal;font-weight:normal;font-stretch:normal;font-size:3.52778px;font-family:'Berlin Sans FB';-inkscape-font-specification:'Berlin Sans FB, Normal';font-variant-ligatures:normal;font-variant-caps:normal;font-variant-numeric:normal;font-variant-east-asian:normal;fill:#5f5f5f;fill-opacity:1;stroke:none;stroke-width:0.5"
         x="39.746799"
         y="106.19286">MISO</tspan></text>
    <text
       xml:space="preserve"
       style="font-size:8.92863px;line-height:1;font-family:'Berlin Sans FB';-inkscape-font-specification:'Berlin Sans FB, Normal';font-variation-settings:normal;text-align:center;text-decoration-color:#000000;letter-spacing:0px;word-spacing:0px;text-anchor:middle;fill:none;fill-opacity:1;stroke:#404b53;stroke-width:0.499999;stroke-linecap:round;stroke-linejoin:round;stroke-miterlimit:4;stroke-dasharray:none;stroke-dashoffset:0;stroke-opacity:1;paint-order:markers stroke fill"
       x="171.38408"
       y="106.20837"
       id="text70-8"><tspan
         sodipodi:role="line"
         id="tspan70-4"
         style="font-style:normal;font-variant:normal;font-weight:normal;font-stretch:normal;font-size:3.52778px;font-family:'Berlin Sans FB';-inkscape-font-specification:'Berlin Sans FB, Normal';font-variant-ligatures:normal;font-variant-caps:normal;font-variant-numeric:normal;font-variant-east-asian:normal;fill:#5f5f5f;fill-opacity:1;stroke:none;stroke-width:0.5"
         x="171.38408"
         y="106.20837">10 - CS</tspan></text>
    <text
       xml:space="preserve"
       style="font-size:8.92863px;line-height:1;font-family:'Berlin Sans FB';-inkscape-font-specification:'Berlin Sans FB, Normal';font-variation-settings:normal;text-align:center;text-decoration-color:#000000;letter-spacing:0px;word-spacing:0px;text-anchor:middle;fill:none;fill-opacity:1;stroke:#404b53;stroke-width:0.499999;stroke-linecap:round;stroke-linejoin:round;stroke-miterlimit:4;stroke-dasharray:none;stroke-dashoffset:0;stroke-opacity:1;paint-order:markers stroke fill"
       x="172.21349"
       y="91.210091"
       id="text71-2"><tspan
         sodipodi:role="line"
         id="tspan71-2"
         style="font-style:normal;font-variant:normal;font-weight:normal;font-stretch:normal;font-size:3.52778px;font-family:'Berlin Sans FB';-inkscape-font-specification:'Berlin Sans FB, Normal';font-variant-ligatures:normal;font-variant-caps:normal;font-variant-numeric:normal;font-variant-east-asian:normal;fill:#5f5f5f;fill-opacity:1;stroke:none;stroke-width:0.5"
         x="172.21349"
         y="91.210091">13 - SCK</tspan></text>
    <text
       xml:space="preserve"
       style="font-size:8.92863px;line-height:1;font-family:'Berlin Sans FB';-inkscape-font-specification:'Berlin Sans FB, Normal';font-variation-settings:normal;text-align:center;text-decoration-color:#000000;letter-spacing:0px;word-spacing:0px;text-anchor:middle;fill:none;fill-opacity:1;stroke:#404b53;stroke-width:0.499999;stroke-linecap:round;stroke-linejoin:round;stroke-miterlimit:4;stroke-dasharray:none;stroke-dashoffset:0;stroke-opacity:1;paint-order:markers stroke fill"
       x="172.86891"
       y="101.21009"
       id="text72-3"><tspan
         sodipodi:role="line"
         id="tspan72-4"
         style="font-style:normal;font-variant:normal;font-weight:normal;font-stretch:normal;font-size:3.52778px;font-family:'Berlin Sans FB';-inkscape-font-specification:'Berlin Sans FB, Normal';font-variant-ligatures:normal;font-variant-caps:normal;font-variant-numeric:normal;font-variant-east-asian:normal;fill:#5f5f5f;fill-opacity:1;stroke:none;stroke-width:0.5"
         x="172.86891"
         y="101.21009">11 - MOSI</tspan></text>
    <text
       xml:space="preserve"
       style="font-size:8.92863px;line-height:1;font-family:'Berlin Sans FB';-inkscape-font-specification:'Berlin Sans FB, Normal';font-variation-settings:normal;text-align:center;text-decoration-color:#000000;letter-spacing:0px;word-spacing:0px;text-anchor:middle;fill:none;fill-opacity:1;stroke:#404b53;stroke-width:0.499999;stroke-linecap:round;stroke-linejoin:round;stroke-miterlimit:4;stroke-dasharray:none;stroke-dashoffset:0;stroke-opacity:1;paint-order:markers stroke fill"
       x="173.23065"
       y="96.208366"
       id="text73-2"><tspan
         sodipodi:role="line"
         id="tspan73-4"
         style="font-style:normal;font-variant:normal;font-weight:normal;font-stretch:normal;font-size:3.52778px;font-family:'Berlin Sans FB';-inkscape-font-specification:'Berlin Sans FB, Normal';font-variant-ligatures:normal;font-variant-caps:normal;font-variant-numeric:normal;font-variant-east-asian:normal;fill:#5f5f5f;fill-opacity:1;stroke:none;stroke-width:0.5"
         x="173.23065"
         y="96.208366">12 - MISO</tspan></text>
    <text
       xml:space="preserve"
       style="font-size:8.92863px;line-height:1;font-family:'Berlin Sans FB';-inkscape-font-specification:'Berlin Sans FB, Normal';font-variation-settings:normal;text-align:center;text-decoration-color:#000000;letter-spacing:0px;word-spacing:0px;text-anchor:middle;opacity:1;fill:none;fill-opacity:1;stroke:#404b53;stroke-width:0.499999;stroke-linecap:round;stroke-linejoin:round;stroke-miterlimit:4;stroke-dasharray:none;stroke-dashoffset:0;stroke-opacity:1;paint-order:markers stroke fill"
       x="40.385864"
       y="111.20837"
       id="text74"><tspan
         sodipodi:role="line"
         id="tspan74"
         style="font-style:normal;font-variant:normal;font-weight:normal;font-stretch:normal;font-size:3.52778px;font-family:'Berlin Sans FB';-inkscape-font-specification:'Berlin Sans FB, Normal';font-variant-ligatures:normal;font-variant-caps:normal;font-variant-numeric:normal;font-variant-east-asian:normal;fill:#5f5f5f;fill-opacity:1;stroke:none;stroke-width:0.5"
         x="40.385864"
         y="111.20837">VCC</tspan></text>
    <text
       xml:space="preserve"
       style="font-size:8.92863px;line-height:1;font-family:'Berlin Sans FB';-inkscape-font-specification:'Berlin Sans FB, Normal';font-variation-settings:normal;text-align:center;text-decoration-color:#000000;letter-spacing:0px;word-spacing:0px;text-anchor:middle;opacity:1;fill:none;fill-opacity:1;stroke:#404b53;stroke-width:0.499999;stroke-linecap:round;stroke-linejoin:round;stroke-miterlimit:4;stroke-dasharray:none;stroke-dashoffset:0;stroke-opacity:1;paint-order:markers stroke fill"
       x="40.000874"
       y="116.19286"
       id="text75"><tspan
         sodipodi:role="line"
         id="tspan75"
         style="font-style:normal;font-variant:normal;font-weight:normal;font-stretch:normal;font-size:3.52778px;font-family:'Berlin Sans FB';-inkscape-font-specification:'Berlin Sans FB, Normal';font-variant-ligatures:normal;font-variant-caps:normal;font-variant-numeric:normal;font-variant-east-asian:normal;fill:#5f5f5f;fill-opacity:1;stroke:none;stroke-width:0.5"
         x="40.000874"
         y="116.19286">GND</tspan></text>
    <text
       xml:space="preserve"
       style="font-size:3.52777px;line-height:1;font-family:'Berlin Sans FB';-inkscape-font-specification:'Berlin Sans FB, Normal';text-align:center;text-decoration-color:#000000;letter-spacing:0px;word-spacing:0px;text-anchor:middle;fill:#000000;fill-opacity:1;stroke:none;stroke-width:1;stroke-linecap:round;stroke-linejoin:round;paint-order:markers stroke fill"
       x="24.614798"
       y="72.208389"
       id="text1"><tspan
         sodipodi:role="line"
         id="tspan1"
         style="fill:#000000;fill-opacity:1;stroke:none;stroke-width:1"
         x="24.614798"
         y="72.208389">Power</tspan><tspan
         sodipodi:role="line"
         style="fill:#000000;fill-opacity:1;stroke:none;stroke-width:1"
         x="24.614798"
         y="75.73616"
         id="tspan2">Supply</tspan></text>
    <text
       xml:space="preserve"
       style="font-size:3.52777px;line-height:1;font-family:'Berlin Sans FB';-inkscape-font-specification:'Berlin Sans FB, Normal';text-align:center;text-decoration-color:#000000;letter-spacing:0px;word-spacing:0px;text-anchor:middle;fill:#000000;fill-opacity:1;stroke:none;stroke-width:1;stroke-linecap:round;stroke-linejoin:round;paint-order:markers stroke fill"
       x="25.656076"
       y="92.261795"
       id="text4"><tspan
         sodipodi:role="line"
         style="fill:#000000;fill-opacity:1;stroke:none;stroke-width:1"
         x="25.656076"
         y="92.261795"
         id="tspan4">SD Card</tspan><tspan
         sodipodi:role="line"
         style="fill:#000000;fill-opacity:1;stroke:none;stroke-width:1"
         x="25.656076"
         y="95.789566"
         id="tspan5">Reader</tspan></text>
    <text
       xml:space="preserve"
       style="font-size:3.52777px;line-height:1;font-family:'Berlin Sans FB';-inkscape-font-specification:'Berlin Sans FB, Normal';text-align:center;text-decoration-color:#000000;letter-spacing:0px;word-spacing:0px;text-anchor:middle;fill:#000000;fill-opacity:1;stroke:none;stroke-width:1;stroke-linecap:round;stroke-linejoin:round;paint-order:markers stroke fill"
       x="184.35857"
       y="72.251457"
       id="text7"><tspan
         sodipodi:role="line"
         style="fill:#000000;fill-opacity:1;stroke:none;stroke-width:1"
         x="184.35857"
         y="72.251457"
         id="tspan7">Arduino</tspan></text>
    <g
       id="g13">
      <rect
         style="opacity:1;fill:#d1d1d1;fill-opacity:1;stroke:#000000;stroke-width:1;stroke-linecap:round;stroke-linejoin:round;stroke-miterlimit:4;stroke-dasharray:none;stroke-dashoffset:0;stroke-opacity:1;paint-order:markers stroke fill"
         id="rect11"
         width="20.000002"
         height="35.000004"
         x="40"
         y="-195"
         transform="rotate(90)" />
      <path
         id="path8"
         style="color:#000000;fill:#005993;stroke-linecap:round;stroke-linejoin:round;-inkscape-stroke:none;paint-order:markers stroke fill"
         d="m 155.00019,43.577869 c 0.51861,0.002 0.99525,0.28537 1.24385,0.74052 l 8.07435,6.2e-4 c 0.37658,-3.4e-4 0.68195,0.30502 0.68161,0.68161 3.4e-4,0.37658 -0.30503,0.68195 -0.68161,0.68161 l -8.07435,-6.1e-4 c -0.24847,0.45535 -0.72513,0.73933 -1.24385,0.74104 -0.78579,1.8e-4 -1.42284,-0.63687 -1.42266,-1.42265 1e-4,-0.78559 0.63707,-1.42232 1.42266,-1.42214 z"
         sodipodi:nodetypes="ccccccccc" />
      <path
         id="path9"
         style="color:#000000;fill:#005993;stroke-linecap:round;stroke-linejoin:round;-inkscape-stroke:none;paint-order:markers stroke fill"
         d="m 155.00019,48.576609 c 0.51861,0.002 0.99525,0.28537 1.24385,0.74053 l 8.07435,6.1e-4 c 0.37658,-3.4e-4 0.68195,0.30503 0.68161,0.68161 3.4e-4,0.37659 -0.30503,0.68195 -0.68161,0.68161 l -8.07435,-6.1e-4 c -0.24847,0.45535 -0.72513,0.73933 -1.24385,0.74104 -0.78579,1.9e-4 -1.42284,-0.63687 -1.42266,-1.42265 1e-4,-0.78558 0.63707,-1.42232 1.42266,-1.42214 z"
         sodipodi:nodetypes="ccccccccc" />
      <path
         id="path11"
         style="color:#000000;fill:#005993;stroke-linecap:round;stroke-linejoin:round;-inkscape-stroke:none;paint-order:markers stroke fill"
         d="m 155.00019,53.576609 c 0.51861,0.002 0.99525,0.28537 1.24385,0.74053 l 8.07435,6.1e-4 c 0.37658,-3.4e-4 0.68195,0.30503 0.68161,0.68161 3.4e-4,0.37659 -0.30503,0.68195 -0.68161,0.68161 l -8.07435,-6.1e-4 c -0.24847,0.45535 -0.72513,0.73933 -1.24385,0.74104 -0.78579,1.9e-4 -1.42284,-0.63687 -1.42266,-1.42265 1e-4,-0.78558 0.63707,-1.42232 1.42266,-1.42214 z"
         sodipodi:nodetypes="ccccccccc" />
    </g>
    <text
       xml:space="preserve"
       style="font-size:3.52777px;line-height:1;font-family:'Berlin Sans FB';-inkscape-font-specification:'Berlin Sans FB, Normal';text-align:center;text-decoration-color:#000000;letter-spacing:0px;word-spacing:0px;text-anchor:middle;fill:#000000;fill-opacity:1;stroke:none;stroke-width:1;stroke-linecap:round;stroke-linejoin:round;paint-order:markers stroke fill"
       x="182.543"
       y="47.241127"
       id="text16"><tspan
         sodipodi:role="line"
         style="fill:#000000;fill-opacity:1;stroke:none;stroke-width:1"
         x="182.543"
         y="47.241127"
         id="tspan16">Lights</tspan></text>
    <text
       xml:space="preserve"
       style="font-size:8.92863px;line-height:1;font-family:'Berlin Sans FB';-inkscape-font-specification:'Berlin Sans FB, Normal';font-variation-settings:normal;text-align:center;text-decoration-color:#000000;letter-spacing:0px;word-spacing:0px;text-anchor:middle;opacity:1;fill:none;fill-opacity:1;stroke:#404b53;stroke-width:0.499999;stroke-linecap:round;stroke-linejoin:round;stroke-miterlimit:4;stroke-dasharray:none;stroke-dashoffset:0;stroke-opacity:1;paint-order:markers stroke fill"
       x="170.00087"
       y="51.208366"
       id="text19"><tspan
         sodipodi:role="line"
         id="tspan19"
         style="font-style:normal;font-variant:normal;font-weight:normal;font-stretch:normal;font-size:3.52778px;font-family:'Berlin Sans FB';-inkscape-font-specification:'Berlin Sans FB, Normal';font-variant-ligatures:normal;font-variant-caps:normal;font-variant-numeric:normal;font-variant-east-asian:normal;fill:#5f5f5f;fill-opacity:1;stroke:none;stroke-width:0.5"
         x="170.00087"
         y="51.208366">Data</tspan></text>
    <text
       xml:space="preserve"
       style="font-size:8.92863px;line-height:1;font-family:'Berlin Sans FB';-inkscape-font-specification:'Berlin Sans FB, Normal';font-variation-settings:normal;text-align:center;text-decoration-color:#000000;letter-spacing:0px;word-spacing:0px;text-anchor:middle;opacity:1;fill:none;fill-opacity:1;stroke:#404b53;stroke-width:0.499999;stroke-linecap:round;stroke-linejoin:round;stroke-miterlimit:4;stroke-dasharray:none;stroke-dashoffset:0;stroke-opacity:1;paint-order:markers stroke fill"
       x="170.00087"
       y="46.208366"
       id="text17"><tspan
         sodipodi:role="line"
         id="tspan17"
         style="font-style:normal;font-variant:normal;font-weight:normal;font-stretch:normal;font-size:3.52778px;font-family:'Berlin Sans FB';-inkscape-font-specification:'Berlin Sans FB, Normal';font-variant-ligatures:normal;font-variant-caps:normal;font-variant-numeric:normal;font-variant-east-asian:normal;fill:#5f5f5f;fill-opacity:1;stroke:none;stroke-width:0.5"
         x="170.00087"
         y="46.208366">GND</tspan></text>
    <text
       xml:space="preserve"
       style="font-size:8.92863px;line-height:1;font-family:'Berlin Sans FB';-inkscape-font-specification:'Berlin Sans FB, Normal';font-variation-settings:normal;text-align:center;text-decoration-color:#000000;letter-spacing:0px;word-spacing:0px;text-anchor:middle;opacity:1;fill:none;fill-opacity:1;stroke:#404b53;stroke-width:0.499999;stroke-linecap:round;stroke-linejoin:round;stroke-miterlimit:4;stroke-dasharray:none;stroke-dashoffset:0;stroke-opacity:1;paint-order:markers stroke fill"
       x="170.03445"
       y="56.192863"
       id="text18"><tspan
         sodipodi:role="line"
         id="tspan18"
         style="font-style:normal;font-variant:normal;font-weight:normal;font-stretch:normal;font-size:3.52778px;font-family:'Berlin Sans FB';-inkscape-font-specification:'Berlin Sans FB, Normal';font-variant-ligatures:normal;font-variant-caps:normal;font-variant-numeric:normal;font-variant-east-asian:normal;fill:#5f5f5f;fill-opacity:1;stroke:none;stroke-width:0.5"
         x="170.03445"
         y="56.192863">12V</tspan></text>
    <path
       style="color:#000000;fill:#75d550;stroke-linecap:round;stroke-linejoin:round;paint-order:markers stroke fill;stroke:#489f26;stroke-opacity:1;stroke-width:0.5;stroke-dasharray:none"
       d="M 55,74.5 A 0.5,0.5 0 0 0 54.5,75 0.5,0.5 0 0 0 55,75.5 c 4.999995,0 9.989063,0.006 13.667969,0.619141 1.839452,0.306575 3.347176,0.769502 4.34375,1.410156 C 74.008292,78.169951 74.5,78.916668 74.5,80 A 0.5,0.5 0 0 0 75,80.5 0.5,0.5 0 0 0 75.5,80 c 0,-1.416665 -0.758294,-2.544952 -1.949219,-3.310547 -1.190924,-0.765594 -2.808206,-1.240169 -4.71875,-1.558594 C 65.010943,74.494011 59.999996,74.5 55,74.5 Z"
       id="path21" />
    <path
       style="color:#000000;fill:#75d550;stroke-linecap:round;stroke-linejoin:round;paint-order:markers stroke fill;stroke:#489f26;stroke-opacity:1;stroke-width:0.5;stroke-dasharray:none"
       d="m 155,69.5 c -7.55555,0 -12.64012,1.249697 -15.88281,3.195312 C 135.8745,74.640928 134.5,77.333337 134.5,80 a 0.5,0.5 0 0 0 0.5,0.5 0.5,0.5 0 0 0 0.5,-0.5 c 0,-2.33333 1.12551,-4.640931 4.13281,-6.445313 C 142.64011,71.750306 147.55556,70.5 155,70.5 A 0.5,0.5 0 0 0 155.5,70 0.5,0.5 0 0 0 155,69.5 Z"
       id="path23" />
    <path
       style="color:#000000;fill:#75d550;stroke-linecap:round;stroke-linejoin:round;paint-order:markers stroke fill;stroke:#489f26;stroke-opacity:1;stroke-width:0.5;stroke-dasharray:none"
       d="m 155,54.5 c -12.49999,0 -27.52675,-0.01074 -39.50195,3.140625 -5.9876,1.575685 -11.2238,3.944365 -14.98438,7.544922 C 96.75309,68.786104 94.5,73.63334 94.5,80 A 0.5,0.5 0 0 0 95,80.5 0.5,0.5 0 0 0 95.5,80 c 0,-6.133327 2.121917,-10.661111 5.70508,-14.091797 3.58316,-3.430686 8.65949,-5.749516 14.54687,-7.298828 C 127.52673,55.51075 142.50001,55.5 155,55.5 A 0.5,0.5 0 0 0 155.5,55 0.5,0.5 0 0 0 155,54.5 Z"
       id="path24" />
    <path
       style="color:#000000;fill:#75d550;stroke-linecap:round;stroke-linejoin:round;paint-order:markers stroke fill;stroke:#489f26;stroke-opacity:1;stroke-width:0.5;stroke-dasharray:none"
       d="m 155,44.5 c -15.33332,0 -30.5,15.250022 -30.5,35.5 a 0.5,0.5 0 0 0 0.5,0.5 0.5,0.5 0 0 0 0.5,-0.5 c 0,-19.749978 14.83335,-34.5 29.5,-34.5 A 0.5,0.5 0 0 0 155.5,45 0.5,0.5 0 0 0 155,44.5 Z"
       id="path25" />
    <path
       style="color:#000000;fill:#75d550;stroke-linecap:round;stroke-linejoin:round;paint-order:markers stroke fill;stroke:#489f26;stroke-opacity:1;stroke-width:0.5;stroke-dasharray:none"
       d="m 154.85156,49.523437 c -8.16473,2.55148 -14.52435,9.192325 -18.8125,19.408204 C 131.75092,79.147519 129.5,92.955898 129.5,110 a 0.5,0.5 0 0 0 0.5,0.5 0.5,0.5 0 0 0 0.5,-0.5 c 0,-16.955866 2.24909,-30.647538 6.46094,-40.681641 4.21184,-10.034102 10.35225,-16.39328 18.1875,-18.841797 a 0.5,0.5 0 0 0 0.32812,-0.625 0.5,0.5 0 0 0 -0.625,-0.328125 z"
       id="path30" />
    <path
       style="color:#000000;fill:#68dbba;stroke-linecap:round;stroke-linejoin:round;-inkscape-stroke:none;paint-order:markers stroke fill;stroke:#269a79;stroke-opacity:1"
       d="M 104,76.75 A 0.24999949,0.24999949 0 0 0 103.75,77 c 0,0.958332 -0.22608,1.610555 -0.78125,2.054687 C 102.41358,79.49882 101.47222,79.75 100,79.75 A 0.24999949,0.24999949 0 0 0 99.75,80 0.24999949,0.24999949 0 0 0 100,80.25 c 1.52778,0 2.58642,-0.248821 3.28125,-0.804688 C 103.97608,78.889446 104.25,78.041665 104.25,77 A 0.24999949,0.24999949 0 0 0 104,76.75 Z"
       id="path33" />
    <path
       style="color:#000000;fill:#68dbba;stroke-linecap:round;stroke-linejoin:round;-inkscape-stroke:none;paint-order:markers stroke fill;stroke:#269a79;stroke-opacity:1"
       d="M 106,76.75 A 0.24999949,0.24999949 0 0 0 105.75,77 c 0,1.041665 0.27392,1.889446 0.96875,2.445312 C 107.41358,80.001179 108.47222,80.25 110,80.25 A 0.24999949,0.24999949 0 0 0 110.25,80 0.24999949,0.24999949 0 0 0 110,79.75 c -1.47222,0 -2.41358,-0.25118 -2.96875,-0.695313 C 106.47608,78.610555 106.25,77.958332 106.25,77 A 0.24999949,0.24999949 0 0 0 106,76.75 Z"
       id="path34" />
    <path
       style="color:#000000;fill:#75d550;stroke-linecap:round;stroke-linejoin:round;paint-order:markers stroke fill;stroke:#489f26;stroke-opacity:1;stroke-width:0.5;stroke-dasharray:none"
       d="M 55,69.5 A 0.5,0.5 0 0 0 54.5,70 0.5,0.5 0 0 0 55,70.5 c 18.995596,0 33.989399,0.25358 44.183594,1.621094 5.097096,0.683757 8.993016,1.652873 11.556636,2.964843 C 113.30385,76.397908 114.5,77.953706 114.5,80 a 0.5,0.5 0 0 0 0.5,0.5 0.5,0.5 0 0 0 0.5,-0.5 c 0,-2.453701 -1.55386,-4.397911 -4.30273,-5.804688 C 108.44839,72.788536 104.4693,71.820148 99.316406,71.128906 89.010622,69.746423 74.004368,69.500001 55,69.5 Z"
       id="path22" />
    <path
       style="color:#000000;fill:#68dbba;stroke-linecap:round;stroke-linejoin:round;-inkscape-stroke:none;paint-order:markers stroke fill;stroke:#269a79;stroke-opacity:1"
       d="m 119.92188,109.76367 a 0.24999949,0.24999949 0 0 0 -0.14454,0.125 0.24999949,0.24999949 0 0 0 0.11133,0.33399 l 10,5 a 0.24999949,0.24999949 0 0 0 0.33399,-0.11133 0.24999949,0.24999949 0 0 0 -0.11133,-0.33399 l -10,-5 a 0.24999949,0.24999949 0 0 0 -0.18945,-0.0137 z"
       id="path48" />
    <rect
       style="font-variation-settings:normal;vector-effect:none;fill:#c19e00;fill-opacity:1;stroke:#c19e00;stroke-width:1;stroke-linecap:round;stroke-linejoin:round;stroke-miterlimit:4;stroke-dasharray:none;stroke-dashoffset:0;stroke-opacity:1;-inkscape-stroke:none;paint-order:markers stroke fill;stop-color:#000000"
       id="rect36"
       width="1.999994"
       height="5.9999995"
       x="-47.763767"
       y="158.53761"
       transform="rotate(-64.15807)" />
    <path
       style="color:#000000;fill:#75d550;stroke-linecap:round;stroke-linejoin:round;paint-order:markers stroke fill;stroke:#489f26;stroke-opacity:1;stroke-width:0.5;stroke-dasharray:none"
       d="M 55,89.5 A 0.5,0.5 0 0 0 54.5,90 0.5,0.5 0 0 0 55,90.5 H 75 A 0.5,0.5 0 0 0 75.5,90 0.5,0.5 0 0 0 75,89.5 Z"
       id="path66" />
    <path
       style="color:#000000;fill:#75d550;stroke-linecap:round;stroke-linejoin:round;paint-order:markers stroke fill;stroke:#489f26;stroke-opacity:1;stroke-width:0.5;stroke-dasharray:none"
       d="M 55,94.5 A 0.5,0.5 0 0 0 54.5,95 0.5,0.5 0 0 0 55,95.5 H 75 A 0.5,0.5 0 0 0 75.5,95 0.5,0.5 0 0 0 75,94.5 Z"
       id="path67" />
    <path
       style="color:#000000;fill:#75d550;stroke-linecap:round;stroke-linejoin:round;paint-order:markers stroke fill;stroke:#489f26;stroke-opacity:1;stroke-width:0.5;stroke-dasharray:none"
       d="m 55,99.5 a 0.5,0.5 0 0 0 -0.5,0.5 0.5,0.5 0 0 0 0.5,0.5 H 75 A 0.5,0.5 0 0 0 75.5,100 0.5,0.5 0 0 0 75,99.5 Z"
       id="path68" />
    <path
       style="color:#000000;fill:#75d550;stroke-linecap:round;stroke-linejoin:round;paint-order:markers stroke fill;stroke:#489f26;stroke-opacity:1;stroke-width:0.5;stroke-dasharray:none"
       d="m 55,104.5 a 0.5,0.5 0 0 0 -0.5,0.5 0.5,0.5 0 0 0 0.5,0.5 H 75 A 0.5,0.5 0 0 0 75.5,105 0.5,0.5 0 0 0 75,104.5 Z"
       id="path69" />
    <path
       style="color:#000000;fill:#75d550;stroke-linecap:round;stroke-linejoin:round;paint-order:markers stroke fill;stroke:#489f26;stroke-opacity:1;stroke-width:0.5;stroke-dasharray:none"
       d="m 69,107.5 c -3.055553,0 -4.417152,0.52784 -6.021484,1.02148 C 61.374183,109.01513 59.462959,109.5 55,109.5 a 0.5,0.5 0 0 0 -0.5,0.5 0.5,0.5 0 0 0 0.5,0.5 c 4.537033,0 6.62582,-0.51512 8.271484,-1.02148 C 64.917148,108.97215 66.055558,108.5 69,108.5 c 2.944441,0 4.350665,0.50135 4.972656,0.91602 0.310996,0.20733 0.43233,0.38614 0.486328,0.49414 C 74.512982,110.01815 74.5,110 74.5,110 a 0.5,0.5 0 0 0 0.5,0.5 0.5,0.5 0 0 0 0.5,-0.5 c 0,0 -0.01298,-0.26815 -0.146484,-0.53516 -0.133502,-0.267 -0.387169,-0.58819 -0.826172,-0.88086 C 73.649337,107.99864 72.055552,107.5 69,107.5 Z"
       id="path71" />
    <path
       style="color:#000000;fill:#75d550;stroke-linecap:round;stroke-linejoin:round;paint-order:markers stroke fill;stroke:#489f26;stroke-opacity:1;stroke-width:0.5;stroke-dasharray:none"
       d="m 55,114.5 a 0.5,0.5 0 0 0 -0.5,0.5 0.5,0.5 0 0 0 0.5,0.5 H 75 A 0.5,0.5 0 0 0 75.5,115 0.5,0.5 0 0 0 75,114.5 Z"
       id="path72" />
    <path
       style="color:#000000;fill:#75d550;stroke-linecap:round;stroke-linejoin:round;paint-order:markers stroke fill;stroke:#489f26;stroke-opacity:1;stroke-width:0.5;stroke-dasharray:none"
       d="m 135,114.5 a 0.5,0.5 0 0 0 -0.5,0.5 0.5,0.5 0 0 0 0.5,0.5 h 20 a 0.5,0.5 0 0 0 0.5,-0.5 0.5,0.5 0 0 0 -0.5,-0.5 z"
       id="path73" />
    <path
       style="color:#000000;fill:#75d550;stroke-linecap:round;stroke-linejoin:round;paint-order:markers stroke fill;stroke:#489f26;stroke-opacity:1;stroke-width:0.5;stroke-dasharray:none"
       d="m 135,104.5 a 0.5,0.5 0 0 0 -0.5,0.5 0.5,0.5 0 0 0 0.5,0.5 h 20 a 0.5,0.5 0 0 0 0.5,-0.5 0.5,0.5 0 0 0 -0.5,-0.5 z"
       id="path74" />
    <path
       style="color:#000000;fill:#75d550;stroke-linecap:round;stroke-linejoin:round;paint-order:markers stroke fill;stroke:#489f26;stroke-opacity:1;stroke-width:0.5;stroke-dasharray:none"
       d="m 135,99.5 a 0.5,0.5 0 0 0 -0.5,0.5 0.5,0.5 0 0 0 0.5,0.5 h 20 a 0.5,0.5 0 0 0 0.5,-0.5 0.5,0.5 0 0 0 -0.5,-0.5 z"
       id="path75" />
    <path
       style="color:#000000;fill:#75d550;stroke-linecap:round;stroke-linejoin:round;paint-order:markers stroke fill;stroke:#489f26;stroke-opacity:1;stroke-width:0.5;stroke-dasharray:none"
       d="m 135,94.5 a 0.5,0.5 0 0 0 -0.5,0.5 0.5,0.5 0 0 0 0.5,0.5 h 20 A 0.5,0.5 0 0 0 155.5,95 0.5,0.5 0 0 0 155,94.5 Z"
       id="path76" />
    <path
       style="color:#000000;fill:#75d550;stroke-linecap:round;stroke-linejoin:round;paint-order:markers stroke fill;stroke:#489f26;stroke-opacity:1;stroke-width:0.5;stroke-dasharray:none"
       d="m 135,89.5 a 0.5,0.5 0 0 0 -0.5,0.5 0.5,0.5 0 0 0 0.5,0.5 h 20 A 0.5,0.5 0 0 0 155.5,90 0.5,0.5 0 0 0 155,89.5 Z"
       id="path77" />
    <path
       style="color:#000000;fill:#68dbba;stroke-linecap:round;stroke-linejoin:round;-inkscape-stroke:none;paint-order:markers stroke fill;stroke:#269a79;stroke-opacity:1"
       d="M 100,87.75 A 0.25002449,0.25002449 0 0 0 99.75,88 v 2 A 0.24999949,0.24999949 0 0 0 100,90.25 0.24999949,0.24999949 0 0 0 100.25,90 v -1.75 h 14.5 V 105 a 0.24999949,0.24999949 0 0 0 0.25,0.25 0.24999949,0.24999949 0 0 0 0.25,-0.25 V 88 A 0.25002449,0.25002449 0 0 0 115,87.75 Z"
       id="path78" />
    <path
       style="color:#000000;fill:#68dbba;stroke-linecap:round;stroke-linejoin:round;-inkscape-stroke:none;paint-order:markers stroke fill;stroke:#269a79;stroke-opacity:1"
       d="m 100,99.75 a 0.24999949,0.24999949 0 0 0 -0.25,0.25 0.24999949,0.24999949 0 0 0 0.25,0.25 h 10 A 0.24999949,0.24999949 0 0 0 110.25,100 0.24999949,0.24999949 0 0 0 110,99.75 Z"
       id="path79" />
    <path
       style="color:#000000;fill:#68dbba;stroke-linecap:round;stroke-linejoin:round;-inkscape-stroke:none;paint-order:markers stroke fill;stroke:#269a79;stroke-opacity:1"
       d="M 110,94.75 A 0.24999949,0.24999949 0 0 0 109.75,95 v 2.75 H 95 A 0.25002449,0.25002449 0 0 0 94.75,98 v 7 A 0.24999949,0.24999949 0 0 0 95,105.25 0.24999949,0.24999949 0 0 0 95.25,105 V 98.25 H 110 A 0.25002449,0.25002449 0 0 0 110.25,98 V 95 A 0.24999949,0.24999949 0 0 0 110,94.75 Z"
       id="path80" />
    <path
       style="color:#000000;fill:#68dbba;stroke-linecap:round;stroke-linejoin:round;-inkscape-stroke:none;paint-order:markers stroke fill;stroke:#269a79;stroke-opacity:1"
       d="M 110,89.75 A 0.24999949,0.24999949 0 0 0 109.75,90 v 2.75 H 95 A 0.25002449,0.25002449 0 0 0 94.75,93 v 2 A 0.24999949,0.24999949 0 0 0 95,95.25 0.24999949,0.24999949 0 0 0 95.25,95 V 93.25 H 110 A 0.25002449,0.25002449 0 0 0 110.25,93 V 90 A 0.24999949,0.24999949 0 0 0 110,89.75 Z"
       id="path81" />
    <path
       style="color:#000000;fill:#68dbba;stroke-linecap:round;stroke-linejoin:round;-inkscape-stroke:none;paint-order:markers stroke fill;stroke:#269a79;stroke-opacity:1"
       d="M 120,79.75 A 0.24999949,0.24999949 0 0 0 119.75,80 v 27.75 H 95 A 0.25002449,0.25002449 0 0 0 94.75,108 v 7 A 0.24999949,0.24999949 0 0 0 95,115.25 0.24999949,0.24999949 0 0 0 95.25,115 v -6.75 H 120 A 0.25002449,0.25002449 0 0 0 120.25,108 V 80 A 0.24999949,0.24999949 0 0 0 120,79.75 Z"
       id="path82" />
    <path
       style="color:#000000;fill:#75d550;stroke-linecap:round;stroke-linejoin:round;paint-order:markers stroke fill;stroke:#489f26;stroke-opacity:1;stroke-width:0.5;stroke-dasharray:none"
       d="m 155,74.5 c -1.29191,-1.72e-4 -2.36552,0.497546 -3.25977,1.201172 -0.89424,0.703626 -1.63109,1.608216 -2.33398,2.486328 -0.70289,0.878112 -1.37492,1.730824 -2.08594,2.339844 C 146.60929,81.136363 145.88994,81.5 145,81.5 c -2.05972,0 -4.57538,0.363634 -6.62109,0.931641 -1.02286,0.284003 -1.92564,0.615734 -2.61133,1.003906 -0.34285,0.194086 -0.63257,0.400134 -0.85938,0.646484 -0.22681,0.246351 -0.40078,0.554576 -0.4082,0.908203 A 0.5,0.5 0 0 0 134.99023,85.5 0.5,0.5 0 0 0 135.5,85.009766 c 8e-4,-0.03803 0.0211,-0.118102 0.14258,-0.25 0.12143,-0.131898 0.33349,-0.29448 0.61719,-0.455079 0.56738,-0.321197 1.41369,-0.639988 2.38671,-0.910156 C 140.59254,82.854195 143.05973,82.5 145,82.5 c 1.17277,0 2.15124,-0.511268 2.97266,-1.214844 0.82141,-0.703576 1.51687,-1.600692 2.21484,-2.472656 0.69797,-0.871964 1.39617,-1.717357 2.16992,-2.326172 C 153.13117,75.877513 153.95807,75.499862 155,75.5 A 0.5,0.5 0 0 0 155.5,75 0.5,0.5 0 0 0 155,74.5 Z"
       id="path85" />
    <text
       xml:space="preserve"
       style="font-size:3.52777px;line-height:1;font-family:'Berlin Sans FB';-inkscape-font-specification:'Berlin Sans FB, Normal';font-variation-settings:normal;text-align:center;text-decoration-color:#000000;letter-spacing:0px;word-spacing:0px;text-anchor:middle;vector-effect:none;fill:#f50000;fill-opacity:1;stroke:none;stroke-width:1;stroke-linecap:round;stroke-linejoin:round;stroke-miterlimit:4;stroke-dasharray:none;stroke-dashoffset:0;stroke-opacity:1;-inkscape-stroke:none;paint-order:markers stroke fill;stop-color:#000000"
       x="67.145798"
       y="86.184921"
       id="text88"><tspan
         sodipodi:role="line"
         id="tspan88"
         style="font-variation-settings:normal;vector-effect:none;fill:#f50000;fill-opacity:1;stroke:none;stroke-width:1;stroke-linecap:round;stroke-linejoin:round;stroke-miterlimit:4;stroke-dasharray:none;stroke-dashoffset:0;stroke-opacity:1;-inkscape-stroke:none;paint-order:markers stroke fill;stop-color:#000000;stop-opacity:1"
         x="67.145798"
         y="86.184921">5V</tspan></text>
    <path
       id="path89"
       style="color:#000000;fill:#f50000;stroke-linecap:round;stroke-linejoin:round;-inkscape-stroke:none;paint-order:markers stroke fill"
       d="m 100.00003,83.999998 a 0.99999994,0.99999994 0 0 1 0.99994,0.99993 0.99999994,0.99999994 0 0 1 -0.99994,0.99994 0.99999994,0.99999994 0 0 1 -0.72915,-0.31832 h -3.541907 a 0.99999994,0.99999994 0 0 1 -0.72915,0.31832 0.99999994,0.99999994 0 0 1 -0.72864,-0.31832 h -3.542421 a 0.99999994,0.99999994 0 0 1 -0.72864,0.31832 0.99999994,0.99999994 0 0 1 -0.72915,-0.31832 h -3.54242 a 0.99999994,0.99999994 0 0 1 -0.72864,0.31832 0.99999994,0.99999994 0 0 1 -0.72915,-0.31832 h -3.5419 a 0.99999994,0.99999994 0 0 1 -0.72916,0.31832 0.99999994,0.99999994 0 0 1 -0.72864,-0.31832 h -3.54242 a 0.99999994,0.99999994 0 0 1 -0.72864,0.31832 0.99999994,0.99999994 0 0 1 -0.99993,-0.99994 0.99999994,0.99999994 0 0 1 0.99993,-0.99993 0.99999994,0.99999994 0 0 1 0.72864,0.31832 h 3.53984 a 0.99999994,0.99999994 0 0 1 0.73122,-0.31832 0.99999994,0.99999994 0 0 1 0.72916,0.31832 h 3.53983 a 0.99999994,0.99999994 0 0 1 0.73122,-0.31832 0.99999994,0.99999994 0 0 1 0.72864,0.31832 h 3.54035 a 0.99999994,0.99999994 0 0 1 0.73122,-0.31832 0.99999994,0.99999994 0 0 1 0.72864,0.31832 h 3.539841 a 0.99999994,0.99999994 0 0 1 0.73122,-0.31832 0.99999994,0.99999994 0 0 1 0.72915,0.31832 h 3.539837 a 0.99999994,0.99999994 0 0 1 0.73122,-0.31832 z" />
    <path
       style="font-variation-settings:normal;fill:none;fill-opacity:1;stroke:#f50000;stroke-width:0.5;stroke-linecap:round;stroke-linejoin:round;stroke-miterlimit:4;stroke-dasharray:none;stroke-dashoffset:0;stroke-opacity:1;paint-order:markers stroke fill;stop-color:#000000"
       d="M 73.000072,84.999928 H 71.000074"
       id="path90"
       sodipodi:nodetypes="cc" />
    <path
       style="font-variation-settings:normal;fill:none;fill-opacity:1;stroke:#f50000;stroke-width:0.5;stroke-linecap:round;stroke-linejoin:round;stroke-miterlimit:4;stroke-dasharray:none;stroke-dashoffset:0;stroke-opacity:1;paint-order:markers stroke fill;stop-color:#000000"
       d="m 72.000074,83.999928 v 2"
       id="path91"
       sodipodi:nodetypes="cc" />
    <path
       style="color:#000000;fill:#68dbba;stroke-linecap:round;stroke-linejoin:round;-inkscape-stroke:none;paint-order:markers stroke fill;stroke:#269a79;stroke-opacity:1"
       d="M 100,84.75 A 0.24999949,0.24999949 0 0 0 99.75,85 0.24999949,0.24999949 0 0 0 100,85.25 h 10 A 0.24999949,0.24999949 0 0 0 110.25,85 0.24999949,0.24999949 0 0 0 110,84.75 Z"
       id="path92" />
    <path
       style="color:#000000;fill:#68dbba;stroke-linecap:round;stroke-linejoin:round;-inkscape-stroke:none;paint-order:markers stroke fill;stroke:#269a79;stroke-opacity:1"
       d="M 90,84.75 A 0.24999949,0.24999949 0 0 0 89.75,85 v 25 A 0.24999949,0.24999949 0 0 0 90,110.25 0.24999949,0.24999949 0 0 0 90.25,110 V 85 A 0.24999949,0.24999949 0 0 0 90,84.75 Z"
       id="path93" />
    <rect
       style="font-variation-settings:normal;vector-effect:none;fill:#003d67;fill-opacity:1;stroke:#003d67;stroke-width:1;stroke-linecap:round;stroke-linejoin:round;stroke-miterlimit:4;stroke-dasharray:none;stroke-dashoffset:0;stroke-opacity:1;-inkscape-stroke:none;paint-order:markers stroke fill;stop-color:#000000"
       id="rect32"
       width="4"
       height="9.999999"
       x="103"
       y="-78"
       transform="scale(1,-1)" />
    <path
       style="fill:none;stroke:#000000;stroke-width:0.5;stroke-linecap:round;stroke-linejoin:round;stroke-dasharray:none;stroke-opacity:1;paint-order:markers stroke fill"
       d="m 102,115 h 2"
       id="path95"
       sodipodi:nodetypes="cc" />
  </g>
</svg>
